<svg width="32" height="32" viewBox="0 0 32 32" fill="none" xmlns="http://www.w3.org/2000/svg">
<path fill-rule="evenodd" clip-rule="evenodd" d="M11.4199 28.0491L20.4047 2.6895L21.6921 3.14563L12.7074 28.5052L11.4199 28.0491Z" fill="#3E2723"/>
<path d="M3 16C3 10.8718 4.12345 6.9304 6.37037 4.17583C8.61728 1.39194 11.8272 0 16 0C18.1886 0 20.0999 0.380953 21.734 1.14286C23.3681 1.90476 24.725 2.98901 25.8047 4.39561C26.8844 5.8022 27.6869 7.48718 28.2121 9.45055C28.7374 11.4139 29 13.5971 29 16C29 21.1282 27.862 25.0842 25.5859 27.8681C23.339 30.6227 20.1437 32 16 32C13.7823 32 11.8563 31.619 10.2222 30.8571C8.5881 30.0952 7.23119 29.011 6.15151 27.6044C5.101 26.1978 4.31313 24.5128 3.78787 22.5495C3.26262 20.5861 3 18.4029 3 16ZM9.30302 16C9.30302 17.5531 9.43434 18.989 9.69697 20.3077C9.95959 21.5971 10.3535 22.7106 10.8788 23.6484C11.4332 24.5861 12.1336 25.3187 12.9798 25.8462C13.826 26.3736 14.8328 26.6374 16 26.6374C18.1302 26.6374 19.7789 25.8022 20.9461 24.1319C22.1134 22.4615 22.697 19.7509 22.697 16C22.697 14.5055 22.5657 13.1136 22.303 11.8242C22.0696 10.5348 21.6902 9.40659 21.165 8.43956C20.6397 7.47253 19.954 6.72528 19.1077 6.1978C18.2615 5.64103 17.2256 5.36264 16 5.36264C13.8698 5.36264 12.2211 6.22711 11.0539 7.95604C9.88665 9.65568 9.30302 12.337 9.30302 16Z" fill="#3E2723"/>
</svg>
