<svg width="739" height="800" viewBox="0 0 739 800" fill="none" xmlns="http://www.w3.org/2000/svg">
<g clip-path="url(#clip0_500_2190)">
<path d="M364.371 85.0264L464.697 522.941L474.938 364.047L675.225 199.322L93.3501 330.453L108.473 555.562L401.918 54.9126L214.814 222.706L149.375 207.796L333.16 781.619L642.371 242.583L316.558 629.997L266.564 393.465L352.185 463.858L608.685 385.229L458.686 296.776L489.957 208.262L669.318 585.748L310.443 253.969L81.2644 483.875L543.439 78.5295L513.831 618.558L297.482 457.695L283.604 575.864L376.746 749.11L196.432 381.263L567.924 446.899L47.9885 248.292L372.748 653.919L402.255 455.417L581.191 419.348L293.492 285.011L44.8707 334.347L403.678 184.513L529.754 606.782L271.353 545.923L540.638 55.7804L425.085 213.289L374.64 271.813L320.761 8.24512L475.967 749.777L445.471 367.615L503.188 381.661L39.6836 389.303L513.827 320.373L160.231 619.695L455.653 243.193L284.351 189.487L625.21 205.679L169.091 632.267L460.213 526.878L376.252 645.204L600.026 384.69L196.477 290.411L637.577 615.991L263.438 134.743L528.645 485.707" stroke="#FF5722" stroke-opacity="0.25" stroke-width="2" stroke-linecap="round" stroke-linejoin="round"/>
<path d="M86.8435 245.889L191.344 339.405L657.163 427.906L446.659 95.3679L314.431 637.908L705.558 237.009L416.798 482.959L330.76 421.783L463.791 694.222L721.738 475.409L598.377 566.828L321.784 350.357L183.63 548.98L318.473 121.307L682.338 255.56L500.068 291.789L444.357 695.323L445.574 286.622L269.23 229.689L97.3823 456.895L679.209 217.487L478.902 82.4062L72.9899 324.643L559.372 573.65L537.872 198.792L299.412 492.34L550.733 399.476L8.24609 482.943L565.933 393.762L137.987 563.601L146.778 369.981L404.479 777.705L272.171 351.225" stroke="#FF5722" stroke-opacity="0.25" stroke-width="2" stroke-linecap="round" stroke-linejoin="round"/>
<path d="M270.742 90.7356L288.891 733.163L40.957 404.273L186.878 694.178L414.538 390.629L700.754 406.21L205.918 254.475L599.114 509.746L319.897 536.626L417.937 791.752L355.061 449.249L226.361 244.873L430.143 156.641L319.628 444.396L609.641 670.609L675.57 223.871L165.466 293.81L538.991 491.561L104.865 557.944L379.076 630.808L510.609 505.355L535.491 229.802L730.55 413.454L439.215 668.13L213.412 555.493L155.145 511.859L74.2892 242.643L290.269 594.001L363.037 257.971L361.884 255.604L555.842 267.469L153.236 415.005L255.583 151.711L569.45 79.1682L549.514 495.278L591.85 351.422L434.249 639.487L375.42 32.4043L140.283 678.974L80.5892 501.288L67.9731 335.122L202.543 390.978L498.619 442.571L705.611 545.818L257.853 565.622L513.465 74.4994L138.105 365.328L205.496 416.082L224.429 345.657L447.962 381.817L88.3557 549.495L442.205 463.4L406.566 516.504L512.168 173.045L384.227 236.901L513.369 270.961" stroke="#FF5722" stroke-opacity="0.25" stroke-width="2" stroke-linecap="round" stroke-linejoin="round"/>
<path d="M418.665 579.363L82.2857 441.8L471.01 556.931L487.374 211.56L633.203 166.821L146.194 329.81L493.104 395.446L718.932 307.515L456.051 304.148L534.769 749.423L384.81 98.6544L644.593 506.202L144.804 376.891L27.5625 536.549L271.961 578.085L621.081 556.646L573.815 118.065L189.313 559.905L257.79 378.796L352.181 728.036L80.6063 159.36L469.575 379.374L269.45 585.523L326.515 439.702L641.451 645.955L622.121 445.568L256.524 231.356L243.085 653.143L350.799 462.664L386.831 709.602L324.96 308.226L273.777 413.02L187.622 190.366L333.852 143.61L40.5804 399.873L457.811 583.988L678.162 354.218L512.651 241.429L89.7871 236.419L310.01 686.849L715.581 479.68L216.856 61.3164L137.443 630.402L232.907 200.632L244.451 163.406L439.944 160.063L361.949 482.854L380.339 157.753L611 384.079" stroke="#FF5722" stroke-opacity="0.25" stroke-width="2" stroke-linecap="round" stroke-linejoin="round"/>
<path d="M372.618 85.0259C372.618 82.8362 371.75 80.7429 370.203 79.196C368.657 77.6491 366.563 76.7812 364.374 76.7812C362.184 76.7812 360.091 77.6491 358.544 79.196C356.997 80.7429 356.129 82.8362 356.129 85.0259C356.129 87.2156 356.997 89.3089 358.544 90.8558C360.091 92.4027 362.184 93.2705 364.374 93.2705C366.563 93.2705 368.657 92.4027 370.203 90.8558C371.75 89.3089 372.618 87.2156 372.618 85.0259Z" fill="#FAA184"/>
<path d="M472.946 522.941C472.946 520.751 472.078 518.658 470.532 517.111C468.985 515.564 466.891 514.696 464.702 514.696C462.512 514.696 460.419 515.564 458.872 517.111C457.325 518.658 456.457 520.751 456.457 522.941C456.457 525.131 457.325 527.224 458.872 528.771C460.419 530.318 462.512 531.186 464.702 531.186C466.891 531.186 468.985 530.318 470.532 528.771C472.078 527.224 472.946 525.131 472.946 522.941Z" fill="#FAA184"/>
<path d="M483.185 364.046C483.185 361.857 482.317 359.763 480.77 358.216C479.223 356.67 477.13 355.802 474.94 355.802C472.75 355.802 470.657 356.67 469.11 358.216C467.563 359.763 466.695 361.857 466.695 364.046C466.695 366.236 467.563 368.329 469.11 369.876C470.657 371.423 472.75 372.291 474.94 372.291C477.13 372.291 479.223 371.423 480.77 369.876C482.317 368.329 483.185 366.236 483.185 364.046Z" fill="#FAA184"/>
<path d="M683.474 199.322C683.474 197.132 682.606 195.039 681.059 193.492C679.512 191.945 677.419 191.077 675.229 191.077C673.039 191.077 670.946 191.945 669.399 193.492C667.852 195.039 666.984 197.132 666.984 199.322C666.984 201.512 667.852 203.605 669.399 205.152C670.946 206.699 673.039 207.566 675.229 207.566C677.419 207.566 679.512 206.699 681.059 205.152C682.606 203.605 683.474 201.512 683.474 199.322Z" fill="#FAA184"/>
<path d="M101.603 330.453C101.603 328.263 100.735 326.17 99.1878 324.623C97.641 323.076 95.5477 322.208 93.3579 322.208C91.1682 322.208 89.0749 323.076 87.528 324.623C85.9811 326.17 85.1133 328.263 85.1133 330.453C85.1133 332.642 85.9811 334.736 87.528 336.283C89.0749 337.829 91.1682 338.697 93.3579 338.697C95.5477 338.697 97.641 337.829 99.1878 336.283C100.735 334.736 101.603 332.642 101.603 330.453Z" fill="#FAA184"/>
<path d="M116.72 555.561C116.72 553.371 115.852 551.278 114.305 549.731C112.758 548.184 110.665 547.316 108.475 547.316C106.285 547.316 104.192 548.184 102.645 549.731C101.098 551.278 100.23 553.371 100.23 555.561C100.23 557.751 101.098 559.844 102.645 561.391C104.192 562.938 106.285 563.806 108.475 563.806C110.665 563.806 112.758 562.938 114.305 561.391C115.852 559.844 116.72 557.751 116.72 555.561Z" fill="#FAA184"/>
<path d="M410.165 54.9116C410.165 52.7219 409.297 50.6286 407.75 49.0817C406.203 47.5349 404.11 46.667 401.92 46.667C399.731 46.667 397.637 47.5349 396.091 49.0817C394.544 50.6286 393.676 52.7219 393.676 54.9116C393.676 57.1014 394.544 59.1947 396.091 60.7416C397.637 62.2884 399.731 63.1563 401.92 63.1563C404.11 63.1563 406.203 62.2884 407.75 60.7416C409.297 59.1947 410.165 57.1014 410.165 54.9116Z" fill="#FAA184"/>
<path d="M223.064 222.706C223.064 220.516 222.196 218.423 220.649 216.876C219.102 215.329 217.009 214.461 214.819 214.461C212.629 214.461 210.536 215.329 208.989 216.876C207.442 218.423 206.574 220.516 206.574 222.706C206.574 224.895 207.442 226.989 208.989 228.535C210.536 230.082 212.629 230.95 214.819 230.95C217.009 230.95 219.102 230.082 220.649 228.535C222.196 226.989 223.064 224.895 223.064 222.706Z" fill="#FAA184"/>
<path d="M157.622 207.795C157.622 205.606 156.754 203.512 155.207 201.966C153.66 200.419 151.567 199.551 149.377 199.551C147.188 199.551 145.094 200.419 143.548 201.966C142.001 203.512 141.133 205.606 141.133 207.795C141.133 209.985 142.001 212.078 143.548 213.625C145.094 215.172 147.188 216.04 149.377 216.04C151.567 216.04 153.66 215.172 155.207 213.625C156.754 212.078 157.622 209.985 157.622 207.795Z" fill="#FAA184"/>
<path d="M341.407 781.619C341.407 779.429 340.539 777.336 338.993 775.789C337.446 774.242 335.352 773.374 333.163 773.374C330.973 773.374 328.88 774.242 327.333 775.789C325.786 777.336 324.918 779.429 324.918 781.619C324.918 783.808 325.786 785.902 327.333 787.449C328.88 788.995 330.973 789.863 333.163 789.863C335.352 789.863 337.446 788.995 338.993 787.449C340.539 785.902 341.407 783.808 341.407 781.619Z" fill="#FAA184"/>
<path d="M650.618 242.583C650.618 240.393 649.75 238.3 648.203 236.753C646.657 235.206 644.563 234.338 642.374 234.338C640.184 234.338 638.091 235.206 636.544 236.753C634.997 238.3 634.129 240.393 634.129 242.583C634.129 244.772 634.997 246.866 636.544 248.412C638.091 249.959 640.184 250.827 642.374 250.827C644.563 250.827 646.657 249.959 648.203 248.412C649.75 246.866 650.618 244.772 650.618 242.583Z" fill="#FAA184"/>
<path d="M324.806 629.997C324.806 627.807 323.938 625.714 322.391 624.167C320.844 622.62 318.751 621.752 316.561 621.752C314.371 621.752 312.278 622.62 310.731 624.167C309.184 625.714 308.316 627.807 308.316 629.997C308.316 632.186 309.184 634.28 310.731 635.827C312.278 637.373 314.371 638.241 316.561 638.241C318.751 638.241 320.844 637.373 322.391 635.827C323.938 634.28 324.806 632.186 324.806 629.997Z" fill="#FAA184"/>
<path d="M274.814 393.465C274.814 391.276 273.946 389.182 272.399 387.635C270.852 386.089 268.759 385.221 266.569 385.221C264.379 385.221 262.286 386.089 260.739 387.635C259.192 389.182 258.324 391.276 258.324 393.465C258.324 395.655 259.192 397.748 260.739 399.295C262.286 400.842 264.379 401.71 266.569 401.71C268.759 401.71 270.852 400.842 272.399 399.295C273.946 397.748 274.814 395.655 274.814 393.465Z" fill="#FAA184"/>
<path d="M360.435 463.858C360.435 461.668 359.567 459.575 358.02 458.028C356.473 456.481 354.38 455.613 352.19 455.613C350 455.613 347.907 456.481 346.36 458.028C344.813 459.575 343.945 461.668 343.945 463.858C343.945 466.048 344.813 468.141 346.36 469.688C347.907 471.235 350 472.103 352.19 472.103C354.38 472.103 356.473 471.235 358.02 469.688C359.567 468.141 360.435 466.048 360.435 463.858Z" fill="#FAA184"/>
<path d="M616.931 385.228C616.931 383.038 616.063 380.945 614.516 379.398C612.969 377.851 610.876 376.983 608.686 376.983C606.496 376.983 604.403 377.851 602.856 379.398C601.309 380.945 600.441 383.038 600.441 385.228C600.441 387.418 601.309 389.511 602.856 391.058C604.403 392.605 606.496 393.473 608.686 393.473C610.876 393.473 612.969 392.605 614.516 391.058C616.063 389.511 616.931 387.418 616.931 385.228Z" fill="#FAA184"/>
<path d="M466.935 296.775C466.935 294.585 466.067 292.492 464.52 290.945C462.973 289.398 460.88 288.53 458.69 288.53C456.5 288.53 454.407 289.398 452.86 290.945C451.313 292.492 450.445 294.585 450.445 296.775C450.445 298.965 451.313 301.058 452.86 302.605C454.407 304.152 456.5 305.02 458.69 305.02C460.88 305.02 462.973 304.152 464.52 302.605C466.067 301.058 466.935 298.965 466.935 296.775Z" fill="#FAA184"/>
<path d="M498.204 208.261C498.204 206.072 497.336 203.978 495.789 202.431C494.242 200.884 492.149 200.017 489.959 200.017C487.77 200.017 485.676 200.884 484.13 202.431C482.583 203.978 481.715 206.072 481.715 208.261C481.715 210.451 482.583 212.544 484.13 214.091C485.676 215.638 487.77 216.506 489.959 216.506C492.149 216.506 494.242 215.638 495.789 214.091C497.336 212.544 498.204 210.451 498.204 208.261Z" fill="#FAA184"/>
<path d="M677.564 585.748C677.564 583.558 676.696 581.465 675.149 579.918C673.602 578.371 671.509 577.503 669.319 577.503C667.129 577.503 665.036 578.371 663.489 579.918C661.942 581.465 661.074 583.558 661.074 585.748C661.074 587.937 661.942 590.031 663.489 591.578C665.036 593.124 667.129 593.992 669.319 593.992C671.509 593.992 673.602 593.124 675.149 591.578C676.696 590.031 677.564 587.937 677.564 585.748Z" fill="#FAA184"/>
<path d="M318.689 253.969C318.689 251.78 317.821 249.686 316.274 248.139C314.727 246.592 312.634 245.725 310.444 245.725C308.254 245.725 306.161 246.592 304.614 248.139C303.067 249.686 302.199 251.78 302.199 253.969C302.199 256.159 303.067 258.252 304.614 259.799C306.161 261.346 308.254 262.214 310.444 262.214C312.634 262.214 314.727 261.346 316.274 259.799C317.821 258.252 318.689 256.159 318.689 253.969Z" fill="#FAA184"/>
<path d="M89.5127 483.875C89.5127 481.685 88.6449 479.591 87.098 478.045C85.5511 476.498 83.4578 475.63 81.2681 475.63C79.0783 475.63 76.985 476.498 75.4382 478.045C73.8913 479.591 73.0234 481.685 73.0234 483.875C73.0234 486.064 73.8913 488.158 75.4382 489.704C76.985 491.251 79.0783 492.119 81.2681 492.119C83.4578 492.119 85.5511 491.251 87.098 489.704C88.6449 488.158 89.5127 486.064 89.5127 483.875Z" fill="#FAA184"/>
<path d="M551.688 78.5288C551.688 76.3391 550.821 74.2458 549.274 72.6989C547.727 71.152 545.634 70.2842 543.444 70.2842C541.254 70.2842 539.161 71.152 537.614 72.6989C536.067 74.2458 535.199 76.3391 535.199 78.5288C535.199 80.7186 536.067 82.8119 537.614 84.3587C539.161 85.9056 541.254 86.7735 543.444 86.7735C545.634 86.7735 547.727 85.9056 549.274 84.3587C550.821 82.8119 551.688 80.7186 551.688 78.5288Z" fill="#FAA184"/>
<path d="M522.079 618.557C522.079 616.367 521.211 614.274 519.664 612.727C518.118 611.18 516.024 610.312 513.834 610.312C511.645 610.312 509.551 611.18 508.005 612.727C506.458 614.274 505.59 616.367 505.59 618.557C505.59 620.747 506.458 622.84 508.005 624.387C509.551 625.934 511.645 626.802 513.834 626.802C516.024 626.802 518.118 625.934 519.664 624.387C521.211 622.84 522.079 620.747 522.079 618.557Z" fill="#FAA184"/>
<path d="M305.728 457.695C305.728 455.505 304.86 453.412 303.313 451.865C301.766 450.318 299.673 449.45 297.483 449.45C295.293 449.45 293.2 450.318 291.653 451.865C290.106 453.412 289.238 455.505 289.238 457.695C289.238 459.885 290.106 461.978 291.653 463.525C293.2 465.072 295.293 465.94 297.483 465.94C299.673 465.94 301.766 465.072 303.313 463.525C304.86 461.978 305.728 459.885 305.728 457.695Z" fill="#FAA184"/>
<path d="M291.853 575.864C291.853 573.674 290.985 571.581 289.438 570.034C287.891 568.487 285.798 567.619 283.608 567.619C281.418 567.619 279.325 568.487 277.778 570.034C276.231 571.581 275.363 573.674 275.363 575.864C275.363 578.054 276.231 580.147 277.778 581.694C279.325 583.241 281.418 584.108 283.608 584.108C285.798 584.108 287.891 583.241 289.438 581.694C290.985 580.147 291.853 578.054 291.853 575.864Z" fill="#FAA184"/>
<path d="M384.997 749.11C384.997 746.92 384.129 744.827 382.582 743.28C381.036 741.733 378.942 740.865 376.752 740.865C374.563 740.865 372.469 741.733 370.923 743.28C369.376 744.827 368.508 746.92 368.508 749.11C368.508 751.3 369.376 753.393 370.923 754.94C372.469 756.487 374.563 757.354 376.752 757.354C378.942 757.354 381.036 756.487 382.582 754.94C384.129 753.393 384.997 751.3 384.997 749.11Z" fill="#FAA184"/>
<path d="M204.685 381.262C204.685 379.072 203.817 376.979 202.27 375.432C200.723 373.885 198.63 373.018 196.44 373.018C194.25 373.018 192.157 373.885 190.61 375.432C189.063 376.979 188.195 379.072 188.195 381.262C188.195 383.452 189.063 385.545 190.61 387.092C192.157 388.639 194.25 389.507 196.44 389.507C198.63 389.507 200.723 388.639 202.27 387.092C203.817 385.545 204.685 383.452 204.685 381.262Z" fill="#FAA184"/>
<path d="M576.169 446.899C576.169 444.709 575.301 442.616 573.754 441.069C572.207 439.522 570.114 438.654 567.924 438.654C565.735 438.654 563.641 439.522 562.094 441.069C560.548 442.616 559.68 444.709 559.68 446.899C559.68 449.089 560.548 451.182 562.094 452.729C563.641 454.276 565.735 455.144 567.924 455.144C570.114 455.144 572.207 454.276 573.754 452.729C575.301 451.182 576.169 449.089 576.169 446.899Z" fill="#FAA184"/>
<path d="M56.2393 248.292C56.2393 246.102 55.3714 244.008 53.8246 242.462C52.2777 240.915 50.1844 240.047 47.9946 240.047C45.8049 240.047 43.7116 240.915 42.1647 242.462C40.6179 244.008 39.75 246.102 39.75 248.292C39.75 250.481 40.6179 252.575 42.1647 254.121C43.7116 255.668 45.8049 256.536 47.9946 256.536C50.1844 256.536 52.2777 255.668 53.8246 254.121C55.3714 252.575 56.2393 250.481 56.2393 248.292Z" fill="#FAA184"/>
<path d="M380.993 653.918C380.993 651.729 380.125 649.635 378.578 648.089C377.032 646.542 374.938 645.674 372.749 645.674C370.559 645.674 368.465 646.542 366.919 648.089C365.372 649.635 364.504 651.729 364.504 653.918C364.504 656.108 365.372 658.202 366.919 659.748C368.465 661.295 370.559 662.163 372.749 662.163C374.938 662.163 377.032 661.295 378.578 659.748C380.125 658.202 380.993 656.108 380.993 653.918Z" fill="#FAA184"/>
<path d="M410.501 455.417C410.501 453.227 409.633 451.133 408.086 449.587C406.539 448.04 404.446 447.172 402.256 447.172C400.067 447.172 397.973 448.04 396.426 449.587C394.88 451.133 394.012 453.227 394.012 455.417C394.012 457.606 394.88 459.7 396.426 461.246C397.973 462.793 400.067 463.661 402.256 463.661C404.446 463.661 406.539 462.793 408.086 461.246C409.633 459.7 410.501 457.606 410.501 455.417Z" fill="#FAA184"/>
<path d="M589.439 419.348C589.439 417.158 588.571 415.065 587.024 413.518C585.477 411.971 583.384 411.104 581.194 411.104C579.004 411.104 576.911 411.971 575.364 413.518C573.817 415.065 572.949 417.158 572.949 419.348C572.949 421.538 573.817 423.631 575.364 425.178C576.911 426.725 579.004 427.593 581.194 427.593C583.384 427.593 585.477 426.725 587.024 425.178C588.571 423.631 589.439 421.538 589.439 419.348Z" fill="#FAA184"/>
<path d="M301.743 285.011C301.743 282.821 300.875 280.728 299.328 279.181C297.782 277.634 295.688 276.767 293.499 276.767C291.309 276.767 289.215 277.634 287.669 279.181C286.122 280.728 285.254 282.821 285.254 285.011C285.254 287.201 286.122 289.294 287.669 290.841C289.215 292.388 291.309 293.256 293.499 293.256C295.688 293.256 297.782 292.388 299.328 290.841C300.875 289.294 301.743 287.201 301.743 285.011Z" fill="#FAA184"/>
<path d="M53.1221 334.346C53.1221 332.156 52.2542 330.063 50.7074 328.516C49.1605 326.969 47.0672 326.102 44.8775 326.102C42.6877 326.102 40.5944 326.969 39.0475 328.516C37.5007 330.063 36.6328 332.156 36.6328 334.346C36.6328 336.536 37.5007 338.629 39.0475 340.176C40.5944 341.723 42.6877 342.591 44.8775 342.591C47.0672 342.591 49.1605 341.723 50.7074 340.176C52.2542 338.629 53.1221 336.536 53.1221 334.346Z" fill="#FAA184"/>
<path d="M411.927 184.512C411.927 182.323 411.059 180.229 409.512 178.682C407.965 177.135 405.872 176.268 403.682 176.268C401.492 176.268 399.399 177.135 397.852 178.682C396.305 180.229 395.438 182.323 395.438 184.512C395.438 186.702 396.305 188.795 397.852 190.342C399.399 191.889 401.492 192.757 403.682 192.757C405.872 192.757 407.965 191.889 409.512 190.342C411.059 188.795 411.927 186.702 411.927 184.512Z" fill="#FAA184"/>
<path d="M538.005 606.781C538.005 604.591 537.137 602.498 535.59 600.951C534.043 599.404 531.95 598.536 529.76 598.536C527.571 598.536 525.477 599.404 523.93 600.951C522.383 602.498 521.516 604.591 521.516 606.781C521.516 608.971 522.383 611.064 523.93 612.611C525.477 614.158 527.571 615.025 529.76 615.025C531.95 615.025 534.043 614.158 535.59 612.611C537.137 611.064 538.005 608.971 538.005 606.781Z" fill="#FAA184"/>
<path d="M279.603 545.922C279.603 543.733 278.735 541.639 277.188 540.092C275.641 538.546 273.548 537.678 271.358 537.678C269.168 537.678 267.075 538.546 265.528 540.092C263.981 541.639 263.113 543.733 263.113 545.922C263.113 548.112 263.981 550.205 265.528 551.752C267.075 553.299 269.168 554.167 271.358 554.167C273.548 554.167 275.641 553.299 277.188 551.752C278.735 550.205 279.603 548.112 279.603 545.922Z" fill="#FAA184"/>
<path d="M548.888 55.7798C548.888 53.5901 548.02 51.4968 546.473 49.9499C544.926 48.403 542.833 47.5352 540.643 47.5352C538.453 47.5352 536.36 48.403 534.813 49.9499C533.266 51.4968 532.398 53.5901 532.398 55.7798C532.398 57.9695 533.266 60.0628 534.813 61.6097C536.36 63.1566 538.453 64.0245 540.643 64.0245C542.833 64.0245 544.926 63.1566 546.473 61.6097C548.02 60.0628 548.888 57.9695 548.888 55.7798Z" fill="#FAA184"/>
<path d="M433.337 213.288C433.337 211.098 432.469 209.005 430.922 207.458C429.375 205.911 427.282 205.043 425.092 205.043C422.903 205.043 420.809 205.911 419.262 207.458C417.716 209.005 416.848 211.098 416.848 213.288C416.848 215.477 417.716 217.571 419.262 219.118C420.809 220.664 422.903 221.532 425.092 221.532C427.282 221.532 429.375 220.664 430.922 219.118C432.469 217.571 433.337 215.477 433.337 213.288Z" fill="#FAA184"/>
<path d="M382.892 271.812C382.892 269.622 382.024 267.529 380.477 265.982C378.93 264.435 376.837 263.567 374.647 263.567C372.457 263.567 370.364 264.435 368.817 265.982C367.27 267.529 366.402 269.622 366.402 271.812C366.402 274.002 367.27 276.095 368.817 277.642C370.364 279.189 372.457 280.057 374.647 280.057C376.837 280.057 378.93 279.189 380.477 277.642C382.024 276.095 382.892 274.002 382.892 271.812Z" fill="#FAA184"/>
<path d="M329.009 8.24465C329.009 6.05491 328.141 3.96161 326.594 2.41473C325.047 0.867858 322.954 0 320.764 0C318.574 0 316.481 0.867858 314.934 2.41473C313.387 3.96161 312.52 6.05491 312.52 8.24465C312.52 10.4344 313.387 12.5277 314.934 14.0746C316.481 15.6214 318.574 16.4893 320.764 16.4893C322.954 16.4893 325.047 15.6214 326.594 14.0746C328.141 12.5277 329.009 10.4344 329.009 8.24465Z" fill="#FAA184"/>
<path d="M484.212 749.777C484.212 747.587 483.344 745.494 481.797 743.947C480.25 742.4 478.157 741.532 475.967 741.532C473.778 741.532 471.684 742.4 470.137 743.947C468.591 745.494 467.723 747.587 467.723 749.777C467.723 751.967 468.591 754.06 470.137 755.607C471.684 757.154 473.778 758.022 475.967 758.022C478.157 758.022 480.25 757.154 481.797 755.607C483.344 754.06 484.212 751.967 484.212 749.777Z" fill="#FAA184"/>
<path d="M453.72 367.614C453.72 365.424 452.852 363.331 451.305 361.784C449.758 360.237 447.665 359.369 445.475 359.369C443.285 359.369 441.192 360.237 439.645 361.784C438.098 363.331 437.23 365.424 437.23 367.614C437.23 369.804 438.098 371.897 439.645 373.444C441.192 374.991 443.285 375.858 445.475 375.858C447.665 375.858 449.758 374.991 451.305 373.444C452.852 371.897 453.72 369.804 453.72 367.614Z" fill="#FAA184"/>
<path d="M511.435 381.661C511.435 379.471 510.567 377.378 509.02 375.831C507.473 374.284 505.38 373.416 503.19 373.416C501 373.416 498.907 374.284 497.36 375.831C495.813 377.378 494.945 379.471 494.945 381.661C494.945 383.85 495.813 385.944 497.36 387.491C498.907 389.037 501 389.905 503.19 389.905C505.38 389.905 507.473 389.037 509.02 387.491C510.567 385.944 511.435 383.85 511.435 381.661Z" fill="#FAA184"/>
<path d="M47.9346 389.302C47.9346 387.113 47.0668 385.019 45.5199 383.472C43.973 381.925 41.8797 381.058 39.69 381.058C37.5002 381.058 35.4069 381.925 33.86 383.472C32.3132 385.019 31.4453 387.113 31.4453 389.302C31.4453 391.492 32.3132 393.585 33.86 395.132C35.4069 396.679 37.5002 397.547 39.69 397.547C41.8797 397.547 43.973 396.679 45.5199 395.132C47.0668 393.585 47.9346 391.492 47.9346 389.302Z" fill="#FAA184"/>
<path d="M522.079 320.372C522.079 318.182 521.211 316.089 519.664 314.542C518.118 312.995 516.024 312.127 513.834 312.127C511.645 312.127 509.551 312.995 508.005 314.542C506.458 316.089 505.59 318.182 505.59 320.372C505.59 322.561 506.458 324.655 508.005 326.202C509.551 327.748 511.645 328.616 513.834 328.616C516.024 328.616 518.118 327.748 519.664 326.202C521.211 324.655 522.079 322.561 522.079 320.372Z" fill="#FAA184"/>
<path d="M168.478 619.695C168.478 617.505 167.61 615.412 166.063 613.865C164.516 612.318 162.423 611.45 160.233 611.45C158.043 611.45 155.95 612.318 154.403 613.865C152.856 615.412 151.988 617.505 151.988 619.695C151.988 621.885 152.856 623.978 154.403 625.525C155.95 627.072 158.043 627.94 160.233 627.94C162.423 627.94 164.516 627.072 166.063 625.525C167.61 623.978 168.478 621.885 168.478 619.695Z" fill="#FAA184"/>
<path d="M463.899 243.193C463.899 241.003 463.032 238.91 461.485 237.363C459.938 235.816 457.844 234.948 455.655 234.948C453.465 234.948 451.372 235.816 449.825 237.363C448.278 238.91 447.41 241.003 447.41 243.193C447.41 245.383 448.278 247.476 449.825 249.023C451.372 250.57 453.465 251.438 455.655 251.438C457.844 251.438 459.938 250.57 461.485 249.023C463.032 247.476 463.899 245.383 463.899 243.193Z" fill="#FAA184"/>
<path d="M292.599 189.486C292.599 187.296 291.731 185.203 290.184 183.656C288.637 182.109 286.544 181.241 284.354 181.241C282.164 181.241 280.071 182.109 278.524 183.656C276.977 185.203 276.109 187.296 276.109 189.486C276.109 191.676 276.977 193.769 278.524 195.316C280.071 196.863 282.164 197.731 284.354 197.731C286.544 197.731 288.637 196.863 290.184 195.316C291.731 193.769 292.599 191.676 292.599 189.486Z" fill="#FAA184"/>
<path d="M633.458 205.678C633.458 203.489 632.59 201.395 631.043 199.848C629.496 198.301 627.403 197.434 625.213 197.434C623.024 197.434 620.93 198.301 619.383 199.848C617.837 201.395 616.969 203.489 616.969 205.678C616.969 207.868 617.837 209.961 619.383 211.508C620.93 213.055 623.024 213.923 625.213 213.923C627.403 213.923 629.496 213.055 631.043 211.508C632.59 209.961 633.458 207.868 633.458 205.678Z" fill="#FAA184"/>
<path d="M177.337 632.266C177.337 630.076 176.469 627.983 174.922 626.436C173.375 624.889 171.282 624.021 169.092 624.021C166.903 624.021 164.809 624.889 163.262 626.436C161.716 627.983 160.848 630.076 160.848 632.266C160.848 634.456 161.716 636.549 163.262 638.096C164.809 639.643 166.903 640.511 169.092 640.511C171.282 640.511 173.375 639.643 174.922 638.096C176.469 636.549 177.337 634.456 177.337 632.266Z" fill="#FAA184"/>
<path d="M468.458 526.877C468.458 524.688 467.59 522.594 466.043 521.048C464.496 519.501 462.403 518.633 460.213 518.633C458.024 518.633 455.93 519.501 454.383 521.048C452.837 522.594 451.969 524.688 451.969 526.877C451.969 529.067 452.837 531.161 454.383 532.707C455.93 534.254 458.024 535.122 460.213 535.122C462.403 535.122 464.496 534.254 466.043 532.707C467.59 531.161 468.458 529.067 468.458 526.877Z" fill="#FAA184"/>
<path d="M384.497 645.204C384.497 643.014 383.629 640.921 382.082 639.374C380.536 637.827 378.442 636.959 376.252 636.959C374.063 636.959 371.969 637.827 370.423 639.374C368.876 640.921 368.008 643.014 368.008 645.204C368.008 647.393 368.876 649.487 370.423 651.034C371.969 652.58 374.063 653.448 376.252 653.448C378.442 653.448 380.536 652.58 382.082 651.034C383.629 649.487 384.497 647.393 384.497 645.204Z" fill="#FAA184"/>
<path d="M608.278 384.69C608.278 382.5 607.411 380.407 605.864 378.86C604.317 377.313 602.223 376.445 600.034 376.445C597.844 376.445 595.751 377.313 594.204 378.86C592.657 380.407 591.789 382.5 591.789 384.69C591.789 386.88 592.657 388.973 594.204 390.52C595.751 392.067 597.844 392.935 600.034 392.935C602.223 392.935 604.317 392.067 605.864 390.52C607.411 388.973 608.278 386.88 608.278 384.69Z" fill="#FAA184"/>
<path d="M204.728 290.411C204.728 288.221 203.86 286.128 202.313 284.581C200.766 283.034 198.673 282.166 196.483 282.166C194.293 282.166 192.2 283.034 190.653 284.581C189.106 286.128 188.238 288.221 188.238 290.411C188.238 292.6 189.106 294.694 190.653 296.241C192.2 297.787 194.293 298.655 196.483 298.655C198.673 298.655 200.766 297.787 202.313 296.241C203.86 294.694 204.728 292.6 204.728 290.411Z" fill="#FAA184"/>
<path d="M645.825 615.99C645.825 613.8 644.957 611.707 643.411 610.16C641.864 608.613 639.77 607.745 637.581 607.745C635.391 607.745 633.298 608.613 631.751 610.16C630.204 611.707 629.336 613.8 629.336 615.99C629.336 618.18 630.204 620.273 631.751 621.82C633.298 623.367 635.391 624.234 637.581 624.234C639.77 624.234 641.864 623.367 643.411 621.82C644.957 620.273 645.825 618.18 645.825 615.99Z" fill="#FAA184"/>
<path d="M271.689 134.743C271.689 132.553 270.821 130.46 269.274 128.913C267.727 127.366 265.634 126.498 263.444 126.498C261.254 126.498 259.161 127.366 257.614 128.913C256.067 130.46 255.199 132.553 255.199 134.743C255.199 136.932 256.067 139.026 257.614 140.573C259.161 142.119 261.254 142.987 263.444 142.987C265.634 142.987 267.727 142.119 269.274 140.573C270.821 139.026 271.689 136.932 271.689 134.743Z" fill="#FAA184"/>
<path d="M536.892 485.707C536.892 483.517 536.024 481.424 534.477 479.877C532.93 478.33 530.837 477.462 528.647 477.462C526.457 477.462 524.364 478.33 522.817 479.877C521.27 481.424 520.402 483.517 520.402 485.707C520.402 487.896 521.27 489.99 522.817 491.536C524.364 493.083 526.457 493.951 528.647 493.951C530.837 493.951 532.93 493.083 534.477 491.536C536.024 489.99 536.892 487.896 536.892 485.707Z" fill="#FAA184"/>
<path d="M95.087 245.889C95.087 243.699 94.2191 241.606 92.6722 240.059C91.1253 238.512 89.032 237.645 86.8423 237.645C84.6526 237.645 82.5593 238.512 81.0124 240.059C79.4655 241.606 78.5977 243.699 78.5977 245.889C78.5977 248.079 79.4655 250.172 81.0124 251.719C82.5593 253.266 84.6526 254.134 86.8423 254.134C89.032 254.134 91.1253 253.266 92.6722 251.719C94.2191 250.172 95.087 248.079 95.087 245.889Z" fill="#FAA184"/>
<path d="M199.587 339.405C199.587 337.215 198.719 335.122 197.172 333.575C195.625 332.028 193.532 331.16 191.342 331.16C189.153 331.16 187.059 332.028 185.512 333.575C183.966 335.122 183.098 337.215 183.098 339.405C183.098 341.595 183.966 343.688 185.512 345.235C187.059 346.782 189.153 347.649 191.342 347.649C193.532 347.649 195.625 346.782 197.172 345.235C198.719 343.688 199.587 341.595 199.587 339.405Z" fill="#FAA184"/>
<path d="M665.411 427.907C665.411 425.717 664.543 423.624 662.996 422.077C661.45 420.53 659.356 419.662 657.167 419.662C654.977 419.662 652.883 420.53 651.337 422.077C649.79 423.624 648.922 425.717 648.922 427.907C648.922 430.096 649.79 432.19 651.337 433.737C652.883 435.284 654.977 436.151 657.167 436.151C659.356 436.151 661.45 435.284 662.996 433.737C664.543 432.19 665.411 430.096 665.411 427.907Z" fill="#FAA184"/>
<path d="M454.907 95.3687C454.907 93.1789 454.039 91.0856 452.492 89.5388C450.946 87.9919 448.852 87.124 446.663 87.124C444.473 87.124 442.38 87.9919 440.833 89.5388C439.286 91.0856 438.418 93.1789 438.418 95.3687C438.418 97.5584 439.286 99.6517 440.833 101.199C442.38 102.745 444.473 103.613 446.663 103.613C448.852 103.613 450.946 102.745 452.492 101.199C454.039 99.6517 454.907 97.5584 454.907 95.3687Z" fill="#FAA184"/>
<path d="M322.673 637.908C322.673 635.718 321.805 633.625 320.258 632.078C318.711 630.531 316.618 629.663 314.428 629.663C312.239 629.663 310.145 630.531 308.598 632.078C307.051 633.625 306.184 635.718 306.184 637.908C306.184 640.097 307.051 642.191 308.598 643.738C310.145 645.284 312.239 646.152 314.428 646.152C316.618 646.152 318.711 645.284 320.258 643.738C321.805 642.191 322.673 640.097 322.673 637.908Z" fill="#FAA184"/>
<path d="M713.802 237.01C713.802 234.821 712.934 232.727 711.387 231.18C709.84 229.633 707.747 228.766 705.557 228.766C703.367 228.766 701.274 229.633 699.727 231.18C698.18 232.727 697.312 234.821 697.312 237.01C697.312 239.2 698.18 241.293 699.727 242.84C701.274 244.387 703.367 245.255 705.557 245.255C707.747 245.255 709.84 244.387 711.387 242.84C712.934 241.293 713.802 239.2 713.802 237.01Z" fill="#FAA184"/>
<path d="M425.044 482.959C425.044 480.77 424.176 478.676 422.629 477.13C421.082 475.583 418.989 474.715 416.799 474.715C414.61 474.715 412.516 475.583 410.969 477.13C409.423 478.676 408.555 480.77 408.555 482.959C408.555 485.149 409.423 487.243 410.969 488.789C412.516 490.336 414.61 491.204 416.799 491.204C418.989 491.204 421.082 490.336 422.629 488.789C424.176 487.243 425.044 485.149 425.044 482.959Z" fill="#FAA184"/>
<path d="M339.005 421.784C339.005 419.594 338.137 417.501 336.59 415.954C335.043 414.407 332.95 413.539 330.76 413.539C328.571 413.539 326.477 414.407 324.93 415.954C323.383 417.501 322.516 419.594 322.516 421.784C322.516 423.973 323.383 426.067 324.93 427.614C326.477 429.161 328.571 430.028 330.76 430.028C332.95 430.028 335.043 429.161 336.59 427.614C338.137 426.067 339.005 423.973 339.005 421.784Z" fill="#FAA184"/>
<path d="M472.036 694.222C472.036 692.032 471.168 689.939 469.621 688.392C468.075 686.845 465.981 685.978 463.791 685.978C461.602 685.978 459.508 686.845 457.962 688.392C456.415 689.939 455.547 692.032 455.547 694.222C455.547 696.412 456.415 698.505 457.962 700.052C459.508 701.599 461.602 702.467 463.791 702.467C465.981 702.467 468.075 701.599 469.621 700.052C471.168 698.505 472.036 696.412 472.036 694.222Z" fill="#FAA184"/>
<path d="M729.981 475.41C729.981 473.22 729.114 471.127 727.567 469.58C726.02 468.033 723.927 467.165 721.737 467.165C719.547 467.165 717.454 468.033 715.907 469.58C714.36 471.127 713.492 473.22 713.492 475.41C713.492 477.599 714.36 479.693 715.907 481.24C717.454 482.786 719.547 483.654 721.737 483.654C723.927 483.654 726.02 482.786 727.567 481.24C729.114 479.693 729.981 477.599 729.981 475.41Z" fill="#FAA184"/>
<path d="M606.622 566.828C606.622 564.638 605.754 562.545 604.207 560.998C602.661 559.451 600.567 558.583 598.377 558.583C596.188 558.583 594.094 559.451 592.548 560.998C591.001 562.545 590.133 564.638 590.133 566.828C590.133 569.017 591.001 571.111 592.548 572.658C594.094 574.204 596.188 575.072 598.377 575.072C600.567 575.072 602.661 574.204 604.207 572.658C605.754 571.111 606.622 569.017 606.622 566.828Z" fill="#FAA184"/>
<path d="M330.028 350.358C330.028 348.168 329.161 346.075 327.614 344.528C326.067 342.981 323.973 342.113 321.784 342.113C319.594 342.113 317.501 342.981 315.954 344.528C314.407 346.075 313.539 348.168 313.539 350.358C313.539 352.548 314.407 354.641 315.954 356.188C317.501 357.735 319.594 358.603 321.784 358.603C323.973 358.603 326.067 357.735 327.614 356.188C329.161 354.641 330.028 352.548 330.028 350.358Z" fill="#FAA184"/>
<path d="M191.872 548.981C191.872 546.791 191.004 544.698 189.457 543.151C187.91 541.604 185.817 540.736 183.627 540.736C181.438 540.736 179.344 541.604 177.798 543.151C176.251 544.698 175.383 546.791 175.383 548.981C175.383 551.171 176.251 553.264 177.798 554.811C179.344 556.358 181.438 557.226 183.627 557.226C185.817 557.226 187.91 556.358 189.457 554.811C191.004 553.264 191.872 551.171 191.872 548.981Z" fill="#FAA184"/>
<path d="M326.716 121.308C326.716 119.118 325.848 117.025 324.301 115.478C322.754 113.931 320.661 113.063 318.471 113.063C316.281 113.063 314.188 113.931 312.641 115.478C311.094 117.025 310.227 119.118 310.227 121.308C310.227 123.498 311.094 125.591 312.641 127.138C314.188 128.685 316.281 129.553 318.471 129.553C320.661 129.553 322.754 128.685 324.301 127.138C325.848 125.591 326.716 123.498 326.716 121.308Z" fill="#FAA184"/>
<path d="M690.583 255.56C690.583 253.37 689.715 251.277 688.168 249.73C686.621 248.183 684.528 247.315 682.338 247.315C680.149 247.315 678.055 248.183 676.508 249.73C674.962 251.277 674.094 253.37 674.094 255.56C674.094 257.75 674.962 259.843 676.508 261.39C678.055 262.937 680.149 263.805 682.338 263.805C684.528 263.805 686.621 262.937 688.168 261.39C689.715 259.843 690.583 257.75 690.583 255.56Z" fill="#FAA184"/>
<path d="M508.31 291.79C508.31 289.6 507.442 287.507 505.895 285.96C504.348 284.413 502.255 283.545 500.065 283.545C497.875 283.545 495.782 284.413 494.235 285.96C492.688 287.507 491.82 289.6 491.82 291.79C491.82 293.979 492.688 296.073 494.235 297.619C495.782 299.166 497.875 300.034 500.065 300.034C502.255 300.034 504.348 299.166 505.895 297.619C507.442 296.073 508.31 293.979 508.31 291.79Z" fill="#FAA184"/>
<path d="M452.599 695.323C452.599 693.133 451.731 691.04 450.184 689.493C448.637 687.946 446.544 687.078 444.354 687.078C442.164 687.078 440.071 687.946 438.524 689.493C436.977 691.04 436.109 693.133 436.109 695.323C436.109 697.512 436.977 699.606 438.524 701.153C440.071 702.7 442.164 703.567 444.354 703.567C446.544 703.567 448.637 702.7 450.184 701.153C451.731 699.606 452.599 697.512 452.599 695.323Z" fill="#FAA184"/>
<path d="M453.817 286.623C453.817 284.433 452.95 282.34 451.403 280.793C449.856 279.246 447.763 278.378 445.573 278.378C443.383 278.378 441.29 279.246 439.743 280.793C438.196 282.34 437.328 284.433 437.328 286.623C437.328 288.812 438.196 290.906 439.743 292.453C441.29 293.999 443.383 294.867 445.573 294.867C447.763 294.867 449.856 293.999 451.403 292.453C452.95 290.906 453.817 288.812 453.817 286.623Z" fill="#FAA184"/>
<path d="M277.478 229.689C277.478 227.499 276.61 225.406 275.063 223.859C273.516 222.312 271.423 221.444 269.233 221.444C267.043 221.444 264.95 222.312 263.403 223.859C261.856 225.406 260.988 227.499 260.988 229.689C260.988 231.879 261.856 233.972 263.403 235.519C264.95 237.066 267.043 237.934 269.233 237.934C271.423 237.934 273.516 237.066 275.063 235.519C276.61 233.972 277.478 231.879 277.478 229.689Z" fill="#FAA184"/>
<path d="M105.63 456.895C105.63 454.705 104.762 452.612 103.215 451.065C101.668 449.518 99.575 448.65 97.3853 448.65C95.1955 448.65 93.1022 449.518 91.5554 451.065C90.0085 452.612 89.1406 454.705 89.1406 456.895C89.1406 459.085 90.0085 461.178 91.5554 462.725C93.1022 464.272 95.1955 465.14 97.3853 465.14C99.575 465.14 101.668 464.272 103.215 462.725C104.762 461.178 105.63 459.085 105.63 456.895Z" fill="#FAA184"/>
<path d="M687.45 217.487C687.45 215.297 686.582 213.204 685.036 211.657C683.489 210.11 681.395 209.242 679.206 209.242C677.016 209.242 674.923 210.11 673.376 211.657C671.829 213.204 670.961 215.297 670.961 217.487C670.961 219.677 671.829 221.77 673.376 223.317C674.923 224.864 677.016 225.731 679.206 225.731C681.395 225.731 683.489 224.864 685.036 223.317C686.582 221.77 687.45 219.677 687.45 217.487Z" fill="#FAA184"/>
<path d="M487.146 82.4068C487.146 80.217 486.278 78.1237 484.731 76.5768C483.184 75.03 481.091 74.1621 478.901 74.1621C476.711 74.1621 474.618 75.03 473.071 76.5768C471.524 78.1237 470.656 80.217 470.656 82.4068C470.656 84.5965 471.524 86.6898 473.071 88.2367C474.618 89.7835 476.711 90.6514 478.901 90.6514C481.091 90.6514 483.184 89.7835 484.731 88.2367C486.278 86.6898 487.146 84.5965 487.146 82.4068Z" fill="#FAA184"/>
<path d="M81.2354 324.643C81.2354 322.453 80.3675 320.36 78.8207 318.813C77.2738 317.266 75.1805 316.398 72.9907 316.398C70.801 316.398 68.7077 317.266 67.1608 318.813C65.614 320.36 64.7461 322.453 64.7461 324.643C64.7461 326.833 65.614 328.926 67.1608 330.473C68.7077 332.02 70.801 332.888 72.9907 332.888C75.1805 332.888 77.2738 332.02 78.8207 330.473C80.3675 328.926 81.2354 326.833 81.2354 324.643Z" fill="#FAA184"/>
<path d="M567.614 573.65C567.614 571.46 566.746 569.367 565.2 567.82C563.653 566.273 561.559 565.405 559.37 565.405C557.18 565.405 555.087 566.273 553.54 567.82C551.993 569.367 551.125 571.46 551.125 573.65C551.125 575.84 551.993 577.933 553.54 579.48C555.087 581.027 557.18 581.895 559.37 581.895C561.559 581.895 563.653 581.027 565.2 579.48C566.746 577.933 567.614 575.84 567.614 573.65Z" fill="#FAA184"/>
<path d="M546.114 198.792C546.114 196.603 545.246 194.509 543.7 192.963C542.153 191.416 540.059 190.548 537.87 190.548C535.68 190.548 533.587 191.416 532.04 192.963C530.493 194.509 529.625 196.603 529.625 198.792C529.625 200.982 530.493 203.076 532.04 204.622C533.587 206.169 535.68 207.037 537.87 207.037C540.059 207.037 542.153 206.169 543.7 204.622C545.246 203.076 546.114 200.982 546.114 198.792Z" fill="#FAA184"/>
<path d="M307.661 492.341C307.661 490.152 306.793 488.058 305.246 486.511C303.7 484.965 301.606 484.097 299.417 484.097C297.227 484.097 295.133 484.965 293.587 486.511C292.04 488.058 291.172 490.152 291.172 492.341C291.172 494.531 292.04 496.624 293.587 498.171C295.133 499.718 297.227 500.586 299.417 500.586C301.606 500.586 303.7 499.718 305.246 498.171C306.793 496.624 307.661 494.531 307.661 492.341Z" fill="#FAA184"/>
<path d="M558.978 399.476C558.978 397.286 558.11 395.193 556.563 393.646C555.016 392.099 552.923 391.231 550.733 391.231C548.543 391.231 546.45 392.099 544.903 393.646C543.356 395.193 542.488 397.286 542.488 399.476C542.488 401.666 543.356 403.759 544.903 405.306C546.45 406.853 548.543 407.721 550.733 407.721C552.923 407.721 555.016 406.853 556.563 405.306C558.11 403.759 558.978 401.666 558.978 399.476Z" fill="#FAA184"/>
<path d="M16.4932 482.943C16.4932 480.753 15.6253 478.66 14.0785 477.113C12.5316 475.566 10.4383 474.698 8.24855 474.698C6.05882 474.698 3.96552 475.566 2.41864 477.113C0.871764 478.66 0.00390625 480.753 0.00390625 482.943C0.00390625 485.133 0.871764 487.226 2.41864 488.773C3.96552 490.32 6.05882 491.188 8.24855 491.188C10.4383 491.188 12.5316 490.32 14.0785 488.773C15.6253 487.226 16.4932 485.133 16.4932 482.943Z" fill="#FAA184"/>
<path d="M574.177 393.763C574.177 391.573 573.309 389.48 571.762 387.933C570.215 386.386 568.122 385.519 565.932 385.519C563.742 385.519 561.649 386.386 560.102 387.933C558.555 389.48 557.688 391.573 557.688 393.763C557.688 395.953 558.555 398.046 560.102 399.593C561.649 401.14 563.742 402.008 565.932 402.008C568.122 402.008 570.215 401.14 571.762 399.593C573.309 398.046 574.177 395.953 574.177 393.763Z" fill="#FAA184"/>
<path d="M146.231 563.602C146.231 561.412 145.364 559.319 143.817 557.772C142.27 556.225 140.177 555.357 137.987 555.357C135.797 555.357 133.704 556.225 132.157 557.772C130.61 559.319 129.742 561.412 129.742 563.602C129.742 565.792 130.61 567.885 132.157 569.432C133.704 570.979 135.797 571.847 137.987 571.847C140.177 571.847 142.27 570.979 143.817 569.432C145.364 567.885 146.231 565.792 146.231 563.602Z" fill="#FAA184"/>
<path d="M155.024 369.981C155.024 367.791 154.157 365.698 152.61 364.151C151.063 362.604 148.97 361.736 146.78 361.736C144.59 361.736 142.497 362.604 140.95 364.151C139.403 365.698 138.535 367.791 138.535 369.981C138.535 372.171 139.403 374.264 140.95 375.811C142.497 377.358 144.59 378.226 146.78 378.226C148.97 378.226 151.063 377.358 152.61 375.811C154.157 374.264 155.024 372.171 155.024 369.981Z" fill="#FAA184"/>
<path d="M412.724 777.706C412.724 775.516 411.856 773.423 410.309 771.876C408.762 770.329 406.669 769.461 404.479 769.461C402.289 769.461 400.196 770.329 398.649 771.876C397.102 773.423 396.234 775.516 396.234 777.706C396.234 779.895 397.102 781.989 398.649 783.536C400.196 785.082 402.289 785.95 404.479 785.95C406.669 785.95 408.762 785.082 410.309 783.536C411.856 781.989 412.724 779.895 412.724 777.706Z" fill="#FAA184"/>
<path d="M280.415 351.226C280.415 349.036 279.547 346.943 278 345.396C276.453 343.849 274.36 342.981 272.17 342.981C269.981 342.981 267.887 343.849 266.341 345.396C264.794 346.943 263.926 349.036 263.926 351.226C263.926 353.416 264.794 355.509 266.341 357.056C267.887 358.603 269.981 359.471 272.17 359.471C274.36 359.471 276.453 358.603 278 357.056C279.547 355.509 280.415 353.416 280.415 351.226Z" fill="#FAA184"/>
<path d="M278.989 90.7349C278.989 88.5452 278.121 86.4518 276.575 84.905C275.028 83.3581 272.934 82.4902 270.745 82.4902C268.555 82.4902 266.462 83.3581 264.915 84.905C263.368 86.4518 262.5 88.5452 262.5 90.7349C262.5 92.9246 263.368 95.0179 264.915 96.5648C266.462 98.1117 268.555 98.9795 270.745 98.9795C272.934 98.9795 275.028 98.1117 276.575 96.5648C278.121 95.0179 278.989 92.9246 278.989 90.7349Z" fill="#FAA184"/>
<path d="M297.142 733.163C297.142 730.973 296.274 728.88 294.727 727.333C293.18 725.786 291.087 724.918 288.897 724.918C286.707 724.918 284.614 725.786 283.067 727.333C281.52 728.88 280.652 730.973 280.652 733.163C280.652 735.352 281.52 737.446 283.067 738.993C284.614 740.539 286.707 741.407 288.897 741.407C291.087 741.407 293.18 740.539 294.727 738.993C296.274 737.446 297.142 735.352 297.142 733.163Z" fill="#FAA184"/>
<path d="M49.208 404.273C49.208 402.083 48.3402 399.99 46.7933 398.443C45.2464 396.896 43.1531 396.028 40.9634 396.028C38.7737 396.028 36.6804 396.896 35.1335 398.443C33.5866 399.99 32.7188 402.083 32.7188 404.273C32.7188 406.463 33.5866 408.556 35.1335 410.103C36.6804 411.65 38.7737 412.518 40.9634 412.518C43.1531 412.518 45.2464 411.65 46.7933 410.103C48.3402 408.556 49.208 406.463 49.208 404.273Z" fill="#FAA184"/>
<path d="M195.126 694.177C195.126 691.988 194.258 689.894 192.711 688.347C191.164 686.8 189.071 685.933 186.881 685.933C184.692 685.933 182.598 686.8 181.051 688.347C179.505 689.894 178.637 691.988 178.637 694.177C178.637 696.367 179.505 698.46 181.051 700.007C182.598 701.554 184.692 702.422 186.881 702.422C189.071 702.422 191.164 701.554 192.711 700.007C194.258 698.46 195.126 696.367 195.126 694.177Z" fill="#FAA184"/>
<path d="M422.786 390.628C422.786 388.439 421.918 386.345 420.371 384.799C418.825 383.252 416.731 382.384 414.542 382.384C412.352 382.384 410.258 383.252 408.712 384.799C407.165 386.345 406.297 388.439 406.297 390.628C406.297 392.818 407.165 394.911 408.712 396.458C410.258 398.005 412.352 398.873 414.542 398.873C416.731 398.873 418.825 398.005 420.371 396.458C421.918 394.911 422.786 392.818 422.786 390.628Z" fill="#FAA184"/>
<path d="M709.005 406.209C709.005 404.02 708.137 401.926 706.59 400.38C705.043 398.833 702.95 397.965 700.76 397.965C698.571 397.965 696.477 398.833 694.93 400.38C693.383 401.926 692.516 404.02 692.516 406.209C692.516 408.399 693.383 410.493 694.93 412.039C696.477 413.586 698.571 414.454 700.76 414.454C702.95 414.454 705.043 413.586 706.59 412.039C708.137 410.493 709.005 408.399 709.005 406.209Z" fill="#FAA184"/>
<path d="M214.169 254.475C214.169 252.285 213.301 250.192 211.754 248.645C210.207 247.098 208.114 246.23 205.924 246.23C203.735 246.23 201.641 247.098 200.094 248.645C198.548 250.192 197.68 252.285 197.68 254.475C197.68 256.665 198.548 258.758 200.094 260.305C201.641 261.852 203.735 262.72 205.924 262.72C208.114 262.72 210.207 261.852 211.754 260.305C213.301 258.758 214.169 256.665 214.169 254.475Z" fill="#FAA184"/>
<path d="M607.36 509.746C607.36 507.556 606.493 505.463 604.946 503.916C603.399 502.369 601.305 501.501 599.116 501.501C596.926 501.501 594.833 502.369 593.286 503.916C591.739 505.463 590.871 507.556 590.871 509.746C590.871 511.935 591.739 514.029 593.286 515.576C594.833 517.122 596.926 517.99 599.116 517.99C601.305 517.99 603.399 517.122 604.946 515.576C606.493 514.029 607.36 511.935 607.36 509.746Z" fill="#FAA184"/>
<path d="M328.146 536.626C328.146 534.436 327.278 532.342 325.731 530.796C324.184 529.249 322.091 528.381 319.901 528.381C317.711 528.381 315.618 529.249 314.071 530.796C312.524 532.342 311.656 534.436 311.656 536.626C311.656 538.815 312.524 540.909 314.071 542.455C315.618 544.002 317.711 544.87 319.901 544.87C322.091 544.87 324.184 544.002 325.731 542.455C327.278 540.909 328.146 538.815 328.146 536.626Z" fill="#FAA184"/>
<path d="M426.185 791.751C426.185 789.562 425.317 787.468 423.77 785.922C422.223 784.375 420.13 783.507 417.94 783.507C415.75 783.507 413.657 784.375 412.11 785.922C410.563 787.468 409.695 789.562 409.695 791.751C409.695 793.941 410.563 796.034 412.11 797.581C413.657 799.128 415.75 799.996 417.94 799.996C420.13 799.996 422.223 799.128 423.77 797.581C425.317 796.034 426.185 793.941 426.185 791.751Z" fill="#FAA184"/>
<path d="M363.31 449.249C363.31 447.059 362.442 444.966 360.895 443.419C359.348 441.872 357.255 441.004 355.065 441.004C352.875 441.004 350.782 441.872 349.235 443.419C347.688 444.966 346.82 447.059 346.82 449.249C346.82 451.438 347.688 453.532 349.235 455.078C350.782 456.625 352.875 457.493 355.065 457.493C357.255 457.493 359.348 456.625 360.895 455.078C362.442 453.532 363.31 451.438 363.31 449.249Z" fill="#FAA184"/>
<path d="M234.61 244.873C234.61 242.683 233.743 240.59 232.196 239.043C230.649 237.496 228.555 236.628 226.366 236.628C224.176 236.628 222.083 237.496 220.536 239.043C218.989 240.59 218.121 242.683 218.121 244.873C218.121 247.062 218.989 249.156 220.536 250.702C222.083 252.249 224.176 253.117 226.366 253.117C228.555 253.117 230.649 252.249 232.196 250.702C233.743 249.156 234.61 247.062 234.61 244.873Z" fill="#FAA184"/>
<path d="M438.392 156.64C438.392 154.45 437.524 152.357 435.977 150.81C434.43 149.263 432.337 148.396 430.147 148.396C427.957 148.396 425.864 149.263 424.317 150.81C422.77 152.357 421.902 154.45 421.902 156.64C421.902 158.83 422.77 160.923 424.317 162.47C425.864 164.017 427.957 164.885 430.147 164.885C432.337 164.885 434.43 164.017 435.977 162.47C437.524 160.923 438.392 158.83 438.392 156.64Z" fill="#FAA184"/>
<path d="M327.88 444.395C327.88 442.205 327.012 440.112 325.465 438.565C323.918 437.018 321.825 436.15 319.635 436.15C317.446 436.15 315.352 437.018 313.805 438.565C312.258 440.112 311.391 442.205 311.391 444.395C311.391 446.585 312.258 448.678 313.805 450.225C315.352 451.772 317.446 452.64 319.635 452.64C321.825 452.64 323.918 451.772 325.465 450.225C327.012 448.678 327.88 446.585 327.88 444.395Z" fill="#FAA184"/>
<path d="M617.888 670.609C617.888 668.419 617.02 666.326 615.473 664.779C613.926 663.232 611.833 662.364 609.643 662.364C607.453 662.364 605.36 663.232 603.813 664.779C602.266 666.326 601.398 668.419 601.398 670.609C601.398 672.799 602.266 674.892 603.813 676.439C605.36 677.986 607.453 678.854 609.643 678.854C611.833 678.854 613.926 677.986 615.473 676.439C617.02 674.892 617.888 672.799 617.888 670.609Z" fill="#FAA184"/>
<path d="M683.821 223.871C683.821 221.681 682.953 219.588 681.407 218.041C679.86 216.494 677.766 215.626 675.577 215.626C673.387 215.626 671.294 216.494 669.747 218.041C668.2 219.588 667.332 221.681 667.332 223.871C667.332 226.06 668.2 228.154 669.747 229.701C671.294 231.247 673.387 232.115 675.577 232.115C677.766 232.115 679.86 231.247 681.407 229.701C682.953 228.154 683.821 226.06 683.821 223.871Z" fill="#FAA184"/>
<path d="M173.716 293.81C173.716 291.62 172.848 289.527 171.301 287.98C169.754 286.433 167.661 285.565 165.471 285.565C163.281 285.565 161.188 286.433 159.641 287.98C158.094 289.527 157.227 291.62 157.227 293.81C157.227 296 158.094 298.093 159.641 299.64C161.188 301.187 163.281 302.055 165.471 302.055C167.661 302.055 169.754 301.187 171.301 299.64C172.848 298.093 173.716 296 173.716 293.81Z" fill="#FAA184"/>
<path d="M547.243 491.561C547.243 489.371 546.375 487.278 544.828 485.731C543.282 484.184 541.188 483.316 538.999 483.316C536.809 483.316 534.716 484.184 533.169 485.731C531.622 487.278 530.754 489.371 530.754 491.561C530.754 493.751 531.622 495.844 533.169 497.391C534.716 498.938 536.809 499.806 538.999 499.806C541.188 499.806 543.282 498.938 544.828 497.391C546.375 495.844 547.243 493.751 547.243 491.561Z" fill="#FAA184"/>
<path d="M113.11 557.944C113.11 555.754 112.243 553.661 110.696 552.114C109.149 550.567 107.055 549.699 104.866 549.699C102.676 549.699 100.583 550.567 99.0358 552.114C97.489 553.661 96.6211 555.754 96.6211 557.944C96.6211 560.134 97.489 562.227 99.0358 563.774C100.583 565.321 102.676 566.189 104.866 566.189C107.055 566.189 109.149 565.321 110.696 563.774C112.243 562.227 113.11 560.134 113.11 557.944Z" fill="#FAA184"/>
<path d="M387.321 630.808C387.321 628.618 386.453 626.525 384.907 624.978C383.36 623.431 381.266 622.563 379.077 622.563C376.887 622.563 374.794 623.431 373.247 624.978C371.7 626.525 370.832 628.618 370.832 630.808C370.832 632.998 371.7 635.091 373.247 636.638C374.794 638.185 376.887 639.053 379.077 639.053C381.266 639.053 383.36 638.185 384.907 636.638C386.453 635.091 387.321 632.998 387.321 630.808Z" fill="#FAA184"/>
<path d="M518.86 505.354C518.86 503.164 517.993 501.071 516.446 499.524C514.899 497.977 512.805 497.109 510.616 497.109C508.426 497.109 506.333 497.977 504.786 499.524C503.239 501.071 502.371 503.164 502.371 505.354C502.371 507.544 503.239 509.637 504.786 511.184C506.333 512.731 508.426 513.599 510.616 513.599C512.805 513.599 514.899 512.731 516.446 511.184C517.993 509.637 518.86 507.544 518.86 505.354Z" fill="#FAA184"/>
<path d="M543.739 229.801C543.739 227.612 542.871 225.518 541.325 223.971C539.778 222.425 537.684 221.557 535.495 221.557C533.305 221.557 531.212 222.425 529.665 223.971C528.118 225.518 527.25 227.612 527.25 229.801C527.25 231.991 528.118 234.084 529.665 235.631C531.212 237.178 533.305 238.046 535.495 238.046C537.684 238.046 539.778 237.178 541.325 235.631C542.871 234.084 543.739 231.991 543.739 229.801Z" fill="#FAA184"/>
<path d="M738.798 413.454C738.798 411.264 737.93 409.171 736.383 407.624C734.836 406.077 732.743 405.209 730.553 405.209C728.364 405.209 726.27 406.077 724.723 407.624C723.176 409.171 722.309 411.264 722.309 413.454C722.309 415.643 723.176 417.737 724.723 419.284C726.27 420.83 728.364 421.698 730.553 421.698C732.743 421.698 734.836 420.83 736.383 419.284C737.93 417.737 738.798 415.643 738.798 413.454Z" fill="#FAA184"/>
<path d="M447.462 668.129C447.462 665.94 446.594 663.846 445.047 662.3C443.5 660.753 441.407 659.885 439.217 659.885C437.028 659.885 434.934 660.753 433.387 662.3C431.841 663.846 430.973 665.94 430.973 668.129C430.973 670.319 431.841 672.412 433.387 673.959C434.934 675.506 437.028 676.374 439.217 676.374C441.407 676.374 443.5 675.506 445.047 673.959C446.594 672.412 447.462 670.319 447.462 668.129Z" fill="#FAA184"/>
<path d="M221.661 555.493C221.661 553.303 220.793 551.21 219.246 549.663C217.7 548.116 215.606 547.248 213.417 547.248C211.227 547.248 209.133 548.116 207.587 549.663C206.04 551.21 205.172 553.303 205.172 555.493C205.172 557.682 206.04 559.776 207.587 561.323C209.133 562.869 211.227 563.737 213.417 563.737C215.606 563.737 217.7 562.869 219.246 561.323C220.793 559.776 221.661 557.682 221.661 555.493Z" fill="#FAA184"/>
<path d="M163.396 511.859C163.396 509.669 162.528 507.576 160.981 506.029C159.434 504.482 157.341 503.614 155.151 503.614C152.961 503.614 150.868 504.482 149.321 506.029C147.774 507.576 146.906 509.669 146.906 511.859C146.906 514.049 147.774 516.142 149.321 517.689C150.868 519.236 152.961 520.104 155.151 520.104C157.341 520.104 159.434 519.236 160.981 517.689C162.528 516.142 163.396 514.049 163.396 511.859Z" fill="#FAA184"/>
<path d="M82.5401 242.642C82.5401 240.452 81.6722 238.359 80.1253 236.812C78.5785 235.265 76.4852 234.397 74.2954 234.397C72.1057 234.397 70.0124 235.265 68.4655 236.812C66.9186 238.359 66.0508 240.452 66.0508 242.642C66.0508 244.832 66.9186 246.925 68.4655 248.472C70.0124 250.019 72.1057 250.887 74.2954 250.887C76.4852 250.887 78.5785 250.019 80.1253 248.472C81.6722 246.925 82.5401 244.832 82.5401 242.642Z" fill="#FAA184"/>
<path d="M298.517 594.001C298.517 591.811 297.649 589.717 296.102 588.171C294.555 586.624 292.462 585.756 290.272 585.756C288.082 585.756 285.989 586.624 284.442 588.171C282.895 589.717 282.027 591.811 282.027 594.001C282.027 596.19 282.895 598.284 284.442 599.83C285.989 601.377 288.082 602.245 290.272 602.245C292.462 602.245 294.555 601.377 296.102 599.83C297.649 598.284 298.517 596.19 298.517 594.001Z" fill="#FAA184"/>
<path d="M371.282 257.97C371.282 255.781 370.414 253.687 368.868 252.14C367.321 250.593 365.227 249.726 363.038 249.726C360.848 249.726 358.755 250.593 357.208 252.14C355.661 253.687 354.793 255.781 354.793 257.97C354.793 260.16 355.661 262.253 357.208 263.8C358.755 265.347 360.848 266.215 363.038 266.215C365.227 266.215 367.321 265.347 368.868 263.8C370.414 262.253 371.282 260.16 371.282 257.97Z" fill="#FAA184"/>
<path d="M370.134 255.604C370.134 253.414 369.266 251.321 367.719 249.774C366.172 248.227 364.079 247.359 361.889 247.359C359.699 247.359 357.606 248.227 356.059 249.774C354.512 251.321 353.645 253.414 353.645 255.604C353.645 257.794 354.512 259.887 356.059 261.434C357.606 262.981 359.699 263.849 361.889 263.849C364.079 263.849 366.172 262.981 367.719 261.434C369.266 259.887 370.134 257.794 370.134 255.604Z" fill="#FAA184"/>
<path d="M564.087 267.468C564.087 265.279 563.219 263.185 561.672 261.638C560.125 260.091 558.032 259.224 555.842 259.224C553.653 259.224 551.559 260.091 550.012 261.638C548.466 263.185 547.598 265.279 547.598 267.468C547.598 269.658 548.466 271.751 550.012 273.298C551.559 274.845 553.653 275.713 555.842 275.713C558.032 275.713 560.125 274.845 561.672 273.298C563.219 271.751 564.087 269.658 564.087 267.468Z" fill="#FAA184"/>
<path d="M161.481 415.004C161.481 412.815 160.614 410.721 159.067 409.175C157.52 407.628 155.427 406.76 153.237 406.76C151.047 406.76 148.954 407.628 147.407 409.175C145.86 410.721 144.992 412.815 144.992 415.004C144.992 417.194 145.86 419.287 147.407 420.834C148.954 422.381 151.047 423.249 153.237 423.249C155.427 423.249 157.52 422.381 159.067 420.834C160.614 419.287 161.481 417.194 161.481 415.004Z" fill="#FAA184"/>
<path d="M263.829 151.71C263.829 149.521 262.961 147.427 261.414 145.881C259.868 144.334 257.774 143.466 255.584 143.466C253.395 143.466 251.301 144.334 249.755 145.881C248.208 147.427 247.34 149.521 247.34 151.71C247.34 153.9 248.208 155.994 249.755 157.54C251.301 159.087 253.395 159.955 255.584 159.955C257.774 159.955 259.868 159.087 261.414 157.54C262.961 155.994 263.829 153.9 263.829 151.71Z" fill="#FAA184"/>
<path d="M577.696 79.1675C577.696 76.9778 576.828 74.8845 575.282 73.3376C573.735 71.7907 571.641 70.9229 569.452 70.9229C567.262 70.9229 565.169 71.7907 563.622 73.3376C562.075 74.8845 561.207 76.9778 561.207 79.1675C561.207 81.3572 562.075 83.4505 563.622 84.9974C565.169 86.5443 567.262 87.4121 569.452 87.4121C571.641 87.4121 573.735 86.5443 575.282 84.9974C576.828 83.4505 577.696 81.3572 577.696 79.1675Z" fill="#FAA184"/>
<path d="M557.763 495.277C557.763 493.087 556.895 490.994 555.348 489.447C553.801 487.9 551.708 487.032 549.518 487.032C547.328 487.032 545.235 487.9 543.688 489.447C542.141 490.994 541.273 493.087 541.273 495.277C541.273 497.467 542.141 499.56 543.688 501.107C545.235 502.654 547.328 503.521 549.518 503.521C551.708 503.521 553.801 502.654 555.348 501.107C556.895 499.56 557.763 497.467 557.763 495.277Z" fill="#FAA184"/>
<path d="M600.103 351.421C600.103 349.232 599.235 347.138 597.688 345.591C596.141 344.045 594.048 343.177 591.858 343.177C589.668 343.177 587.575 344.045 586.028 345.591C584.481 347.138 583.613 349.232 583.613 351.421C583.613 353.611 584.481 355.704 586.028 357.251C587.575 358.798 589.668 359.666 591.858 359.666C594.048 359.666 596.141 358.798 597.688 357.251C599.235 355.704 600.103 353.611 600.103 351.421Z" fill="#FAA184"/>
<path d="M442.501 639.486C442.501 637.296 441.633 635.203 440.086 633.656C438.539 632.109 436.446 631.241 434.256 631.241C432.067 631.241 429.973 632.109 428.426 633.656C426.88 635.203 426.012 637.296 426.012 639.486C426.012 641.676 426.88 643.769 428.426 645.316C429.973 646.863 432.067 647.731 434.256 647.731C436.446 647.731 438.539 646.863 440.086 645.316C441.633 643.769 442.501 641.676 442.501 639.486Z" fill="#FAA184"/>
<path d="M383.665 32.4038C383.665 30.2141 382.797 28.1208 381.25 26.5739C379.703 25.027 377.61 24.1592 375.42 24.1592C373.231 24.1592 371.137 25.027 369.591 26.5739C368.044 28.1208 367.176 30.2141 367.176 32.4038C367.176 34.5936 368.044 36.6869 369.591 38.2337C371.137 39.7806 373.231 40.6485 375.42 40.6485C377.61 40.6485 379.703 39.7806 381.25 38.2337C382.797 36.6869 383.665 34.5936 383.665 32.4038Z" fill="#FAA184"/>
<path d="M148.528 678.974C148.528 676.784 147.66 674.691 146.114 673.144C144.567 671.597 142.473 670.729 140.284 670.729C138.094 670.729 136.001 671.597 134.454 673.144C132.907 674.691 132.039 676.784 132.039 678.974C132.039 681.164 132.907 683.257 134.454 684.804C136.001 686.351 138.094 687.219 140.284 687.219C142.473 687.219 144.567 686.351 146.114 684.804C147.66 683.257 148.528 681.164 148.528 678.974Z" fill="#FAA184"/>
<path d="M88.837 501.288C88.837 499.098 87.9691 497.005 86.4222 495.458C84.8753 493.911 82.782 493.043 80.5923 493.043C78.4026 493.043 76.3093 493.911 74.7624 495.458C73.2155 497.005 72.3477 499.098 72.3477 501.288C72.3477 503.477 73.2155 505.571 74.7624 507.118C76.3093 508.664 78.4026 509.532 80.5923 509.532C82.782 509.532 84.8753 508.664 86.4222 507.118C87.9691 505.571 88.837 503.477 88.837 501.288Z" fill="#FAA184"/>
<path d="M76.2198 335.122C76.2198 332.932 75.3519 330.839 73.805 329.292C72.2582 327.745 70.1648 326.877 67.9751 326.877C65.7854 326.877 63.6921 327.745 62.1452 329.292C60.5983 330.839 59.7305 332.932 59.7305 335.122C59.7305 337.311 60.5983 339.405 62.1452 340.952C63.6921 342.498 65.7854 343.366 67.9751 343.366C70.1648 343.366 72.2582 342.498 73.805 340.952C75.3519 339.405 76.2198 337.311 76.2198 335.122Z" fill="#FAA184"/>
<path d="M521.614 270.96C521.614 268.771 520.746 266.677 519.2 265.131C517.653 263.584 515.559 262.716 513.37 262.716C511.18 262.716 509.087 263.584 507.54 265.131C505.993 266.677 505.125 268.771 505.125 270.96C505.125 273.15 505.993 275.244 507.54 276.79C509.087 278.337 511.18 279.205 513.37 279.205C515.559 279.205 517.653 278.337 519.2 276.79C520.746 275.244 521.614 273.15 521.614 270.96Z" fill="#FAA184"/>
<path d="M392.474 236.901C392.474 234.711 391.606 232.618 390.059 231.071C388.512 229.524 386.419 228.656 384.229 228.656C382.039 228.656 379.946 229.524 378.399 231.071C376.852 232.618 375.984 234.711 375.984 236.901C375.984 239.091 376.852 241.184 378.399 242.731C379.946 244.278 382.039 245.146 384.229 245.146C386.419 245.146 388.512 244.278 390.059 242.731C391.606 241.184 392.474 239.091 392.474 236.901Z" fill="#FAA184"/>
<path d="M520.419 173.045C520.419 170.856 519.551 168.762 518.004 167.216C516.457 165.669 514.364 164.801 512.174 164.801C509.985 164.801 507.891 165.669 506.344 167.216C504.798 168.762 503.93 170.856 503.93 173.045C503.93 175.235 504.798 177.328 506.344 178.875C507.891 180.422 509.985 181.29 512.174 181.29C514.364 181.29 516.457 180.422 518.004 178.875C519.551 177.328 520.419 175.235 520.419 173.045Z" fill="#FAA184"/>
<path d="M414.817 516.503C414.817 514.314 413.95 512.22 412.403 510.674C410.856 509.127 408.762 508.259 406.573 508.259C404.383 508.259 402.29 509.127 400.743 510.674C399.196 512.22 398.328 514.314 398.328 516.503C398.328 518.693 399.196 520.786 400.743 522.333C402.29 523.88 404.383 524.748 406.573 524.748C408.762 524.748 410.856 523.88 412.403 522.333C413.95 520.786 414.817 518.693 414.817 516.503Z" fill="#FAA184"/>
<path d="M450.45 463.4C450.45 461.21 449.582 459.117 448.036 457.57C446.489 456.023 444.395 455.155 442.206 455.155C440.016 455.155 437.923 456.023 436.376 457.57C434.829 459.117 433.961 461.21 433.961 463.4C433.961 465.59 434.829 467.683 436.376 469.23C437.923 470.777 440.016 471.645 442.206 471.645C444.395 471.645 446.489 470.777 448.036 469.23C449.582 467.683 450.45 465.59 450.45 463.4Z" fill="#FAA184"/>
<path d="M96.6065 549.495C96.6065 547.305 95.7386 545.212 94.1917 543.665C92.6449 542.118 90.5516 541.25 88.3618 541.25C86.1721 541.25 84.0788 542.118 82.5319 543.665C80.985 545.212 80.1172 547.305 80.1172 549.495C80.1172 551.684 80.985 553.778 82.5319 555.325C84.0788 556.871 86.1721 557.739 88.3618 557.739C90.5516 557.739 92.6449 556.871 94.1917 555.325C95.7386 553.778 96.6065 551.684 96.6065 549.495Z" fill="#FAA184"/>
<path d="M456.208 381.817C456.208 379.627 455.34 377.534 453.793 375.987C452.246 374.44 450.153 373.572 447.963 373.572C445.774 373.572 443.68 374.44 442.133 375.987C440.587 377.534 439.719 379.627 439.719 381.817C439.719 384.007 440.587 386.1 442.133 387.647C443.68 389.194 445.774 390.062 447.963 390.062C450.153 390.062 452.246 389.194 453.793 387.647C455.34 386.1 456.208 384.007 456.208 381.817Z" fill="#FAA184"/>
<path d="M232.677 345.656C232.677 343.466 231.809 341.373 230.262 339.826C228.715 338.279 226.622 337.411 224.432 337.411C222.242 337.411 220.149 338.279 218.602 339.826C217.055 341.373 216.188 343.466 216.188 345.656C216.188 347.845 217.055 349.939 218.602 351.486C220.149 353.033 222.242 353.9 224.432 353.9C226.622 353.9 228.715 353.033 230.262 351.486C231.809 349.939 232.677 347.845 232.677 345.656Z" fill="#FAA184"/>
<path d="M213.743 416.082C213.743 413.892 212.875 411.799 211.328 410.252C209.782 408.705 207.688 407.837 205.499 407.837C203.309 407.837 201.216 408.705 199.669 410.252C198.122 411.799 197.254 413.892 197.254 416.082C197.254 418.271 198.122 420.365 199.669 421.911C201.216 423.458 203.309 424.326 205.499 424.326C207.688 424.326 209.782 423.458 211.328 421.911C212.875 420.365 213.743 418.271 213.743 416.082Z" fill="#FAA184"/>
<path d="M210.79 390.978C210.79 388.788 209.922 386.695 208.375 385.148C206.828 383.601 204.735 382.733 202.545 382.733C200.356 382.733 198.262 383.601 196.716 385.148C195.169 386.695 194.301 388.788 194.301 390.978C194.301 393.168 195.169 395.261 196.716 396.808C198.262 398.355 200.356 399.223 202.545 399.223C204.735 399.223 206.828 398.355 208.375 396.808C209.922 395.261 210.79 393.168 210.79 390.978Z" fill="#FAA184"/>
<path d="M521.712 74.4986C521.712 72.3088 520.844 70.2155 519.297 68.6686C517.75 67.1218 515.657 66.2539 513.467 66.2539C511.278 66.2539 509.184 67.1218 507.637 68.6686C506.091 70.2155 505.223 72.3088 505.223 74.4986C505.223 76.6883 506.091 78.7816 507.637 80.3285C509.184 81.8753 511.278 82.7432 513.467 82.7432C515.657 82.7432 517.75 81.8753 519.297 80.3285C520.844 78.7816 521.712 76.6883 521.712 74.4986Z" fill="#FAA184"/>
<path d="M266.103 565.622C266.103 563.432 265.235 561.339 263.688 559.792C262.141 558.245 260.048 557.377 257.858 557.377C255.668 557.377 253.575 558.245 252.028 559.792C250.481 561.339 249.613 563.432 249.613 565.622C249.613 567.811 250.481 569.905 252.028 571.452C253.575 572.998 255.668 573.866 257.858 573.866C260.048 573.866 262.141 572.998 263.688 571.452C265.235 569.905 266.103 567.811 266.103 565.622Z" fill="#FAA184"/>
<path d="M713.864 545.818C713.864 543.628 712.996 541.535 711.45 539.988C709.903 538.441 707.809 537.573 705.62 537.573C703.43 537.573 701.337 538.441 699.79 539.988C698.243 541.535 697.375 543.628 697.375 545.818C697.375 548.008 698.243 550.101 699.79 551.648C701.337 553.195 703.43 554.063 705.62 554.063C707.809 554.063 709.903 553.195 711.45 551.648C712.996 550.101 713.864 548.008 713.864 545.818Z" fill="#FAA184"/>
<path d="M506.868 442.571C506.868 440.381 506 438.288 504.453 436.741C502.907 435.194 500.813 434.326 498.624 434.326C496.434 434.326 494.341 435.194 492.794 436.741C491.247 438.288 490.379 440.381 490.379 442.571C490.379 444.761 491.247 446.854 492.794 448.401C494.341 449.948 496.434 450.815 498.624 450.815C500.813 450.815 502.907 449.948 504.453 448.401C506 446.854 506.868 444.761 506.868 442.571Z" fill="#FAA184"/>
<path d="M146.353 365.328C146.353 363.138 145.485 361.045 143.938 359.498C142.391 357.951 140.298 357.083 138.108 357.083C135.918 357.083 133.825 357.951 132.278 359.498C130.731 361.045 129.863 363.138 129.863 365.328C129.863 367.517 130.731 369.611 132.278 371.158C133.825 372.704 135.918 373.572 138.108 373.572C140.298 373.572 142.391 372.704 143.938 371.158C145.485 369.611 146.353 367.517 146.353 365.328Z" fill="#FAA184"/>
<path d="M426.907 579.364C426.907 577.174 426.039 575.081 424.493 573.534C422.946 571.987 420.852 571.119 418.663 571.119C416.473 571.119 414.38 571.987 412.833 573.534C411.286 575.081 410.418 577.174 410.418 579.364C410.418 581.554 411.286 583.647 412.833 585.194C414.38 586.741 416.473 587.608 418.663 587.608C420.852 587.608 422.946 586.741 424.493 585.194C426.039 583.647 426.907 581.554 426.907 579.364Z" fill="#FAA184"/>
<path d="M90.5284 441.8C90.5284 439.611 89.6605 437.517 88.1136 435.97C86.5667 434.424 84.4734 433.556 82.2837 433.556C80.094 433.556 78.0007 434.424 76.4538 435.97C74.9069 437.517 74.0391 439.611 74.0391 441.8C74.0391 443.99 74.9069 446.083 76.4538 447.63C78.0007 449.177 80.094 450.045 82.2837 450.045C84.4734 450.045 86.5667 449.177 88.1136 447.63C89.6605 446.083 90.5284 443.99 90.5284 441.8Z" fill="#FAA184"/>
<path d="M479.255 556.932C479.255 554.742 478.387 552.649 476.84 551.102C475.293 549.555 473.2 548.688 471.01 548.688C468.821 548.688 466.727 549.555 465.18 551.102C463.633 552.649 462.766 554.742 462.766 556.932C462.766 559.122 463.633 561.215 465.18 562.762C466.727 564.309 468.821 565.177 471.01 565.177C473.2 565.177 475.293 564.309 476.84 562.762C478.387 561.215 479.255 559.122 479.255 556.932Z" fill="#FAA184"/>
<path d="M495.618 211.561C495.618 209.371 494.75 207.278 493.203 205.731C491.657 204.184 489.563 203.316 487.374 203.316C485.184 203.316 483.091 204.184 481.544 205.731C479.997 207.278 479.129 209.371 479.129 211.561C479.129 213.751 479.997 215.844 481.544 217.391C483.091 218.938 485.184 219.806 487.374 219.806C489.563 219.806 491.657 218.938 493.203 217.391C494.75 215.844 495.618 213.751 495.618 211.561Z" fill="#FAA184"/>
<path d="M641.446 166.822C641.446 164.632 640.578 162.539 639.032 160.992C637.485 159.445 635.391 158.577 633.202 158.577C631.012 158.577 628.919 159.445 627.372 160.992C625.825 162.539 624.957 164.632 624.957 166.822C624.957 169.012 625.825 171.105 627.372 172.652C628.919 174.199 631.012 175.066 633.202 175.066C635.391 175.066 637.485 174.199 639.032 172.652C640.578 171.105 641.446 169.012 641.446 166.822Z" fill="#FAA184"/>
<path d="M154.439 329.81C154.439 327.62 153.571 325.527 152.024 323.98C150.477 322.433 148.384 321.565 146.194 321.565C144.004 321.565 141.911 322.433 140.364 323.98C138.817 325.527 137.949 327.62 137.949 329.81C137.949 332 138.817 334.093 140.364 335.64C141.911 337.187 144.004 338.055 146.194 338.055C148.384 338.055 150.477 337.187 152.024 335.64C153.571 334.093 154.439 332 154.439 329.81Z" fill="#FAA184"/>
<path d="M501.349 395.446C501.349 393.256 500.481 391.163 498.934 389.616C497.387 388.069 495.294 387.201 493.104 387.201C490.914 387.201 488.821 388.069 487.274 389.616C485.727 391.163 484.859 393.256 484.859 395.446C484.859 397.636 485.727 399.729 487.274 401.276C488.821 402.823 490.914 403.69 493.104 403.69C495.294 403.69 497.387 402.823 498.934 401.276C500.481 399.729 501.349 397.636 501.349 395.446Z" fill="#FAA184"/>
<path d="M727.177 307.515C727.177 305.325 726.309 303.232 724.762 301.685C723.215 300.138 721.122 299.271 718.932 299.271C716.742 299.271 714.649 300.138 713.102 301.685C711.555 303.232 710.688 305.325 710.688 307.515C710.688 309.705 711.555 311.798 713.102 313.345C714.649 314.892 716.742 315.76 718.932 315.76C721.122 315.76 723.215 314.892 724.762 313.345C726.309 311.798 727.177 309.705 727.177 307.515Z" fill="#FAA184"/>
<path d="M464.298 304.148C464.298 301.958 463.43 299.865 461.883 298.318C460.336 296.771 458.243 295.903 456.053 295.903C453.863 295.903 451.77 296.771 450.223 298.318C448.676 299.865 447.809 301.958 447.809 304.148C447.809 306.338 448.676 308.431 450.223 309.978C451.77 311.525 453.863 312.393 456.053 312.393C458.243 312.393 460.336 311.525 461.883 309.978C463.43 308.431 464.298 306.338 464.298 304.148Z" fill="#FAA184"/>
<path d="M543.013 749.423C543.013 747.234 542.145 745.14 540.598 743.593C539.051 742.047 536.958 741.179 534.768 741.179C532.578 741.179 530.485 742.047 528.938 743.593C527.391 745.14 526.523 747.234 526.523 749.423C526.523 751.613 527.391 753.706 528.938 755.253C530.485 756.8 532.578 757.668 534.768 757.668C536.958 757.668 539.051 756.8 540.598 755.253C542.145 753.706 543.013 751.613 543.013 749.423Z" fill="#FAA184"/>
<path d="M393.052 98.6548C393.052 96.4651 392.184 94.3718 390.637 92.8249C389.09 91.278 386.997 90.4102 384.807 90.4102C382.617 90.4102 380.524 91.278 378.977 92.8249C377.43 94.3718 376.562 96.4651 376.562 98.6548C376.562 100.845 377.43 102.938 378.977 104.485C380.524 106.032 382.617 106.899 384.807 106.899C386.997 106.899 389.09 106.032 390.637 104.485C392.184 102.938 393.052 100.845 393.052 98.6548Z" fill="#FAA184"/>
<path d="M652.837 506.203C652.837 504.013 651.969 501.92 650.422 500.373C648.875 498.826 646.782 497.958 644.592 497.958C642.403 497.958 640.309 498.826 638.762 500.373C637.216 501.92 636.348 504.013 636.348 506.203C636.348 508.392 637.216 510.486 638.762 512.033C640.309 513.579 642.403 514.447 644.592 514.447C646.782 514.447 648.875 513.579 650.422 512.033C651.969 510.486 652.837 508.392 652.837 506.203Z" fill="#FAA184"/>
<path d="M153.052 376.892C153.052 374.702 152.184 372.609 150.637 371.062C149.09 369.515 146.997 368.647 144.807 368.647C142.617 368.647 140.524 369.515 138.977 371.062C137.43 372.609 136.562 374.702 136.562 376.892C136.562 379.082 137.43 381.175 138.977 382.722C140.524 384.269 142.617 385.137 144.807 385.137C146.997 385.137 149.09 384.269 150.637 382.722C152.184 381.175 153.052 379.082 153.052 376.892Z" fill="#FAA184"/>
<path d="M35.8057 536.549C35.8057 534.36 34.9378 532.266 33.391 530.719C31.8441 529.173 29.7508 528.305 27.5611 528.305C25.3713 528.305 23.278 529.173 21.7311 530.719C20.1843 532.266 19.3164 534.36 19.3164 536.549C19.3164 538.739 20.1843 540.832 21.7311 542.379C23.278 543.926 25.3713 544.794 27.5611 544.794C29.7508 544.794 31.8441 543.926 33.391 542.379C34.9378 540.832 35.8057 538.739 35.8057 536.549Z" fill="#FAA184"/>
<path d="M280.204 578.086C280.204 575.897 279.336 573.803 277.789 572.257C276.243 570.71 274.149 569.842 271.959 569.842C269.77 569.842 267.676 570.71 266.13 572.257C264.583 573.803 263.715 575.897 263.715 578.086C263.715 580.276 264.583 582.369 266.13 583.916C267.676 585.463 269.77 586.331 271.959 586.331C274.149 586.331 276.243 585.463 277.789 583.916C279.336 582.369 280.204 580.276 280.204 578.086Z" fill="#FAA184"/>
<path d="M629.325 556.647C629.325 554.457 628.457 552.364 626.911 550.817C625.364 549.27 623.27 548.402 621.081 548.402C618.891 548.402 616.798 549.27 615.251 550.817C613.704 552.364 612.836 554.457 612.836 556.647C612.836 558.837 613.704 560.93 615.251 562.477C616.798 564.024 618.891 564.892 621.081 564.892C623.27 564.892 625.364 564.024 626.911 562.477C628.457 560.93 629.325 558.837 629.325 556.647Z" fill="#FAA184"/>
<path d="M582.06 118.065C582.06 115.875 581.192 113.782 579.645 112.235C578.098 110.688 576.005 109.82 573.815 109.82C571.625 109.82 569.532 110.688 567.985 112.235C566.438 113.782 565.57 115.875 565.57 118.065C565.57 120.255 566.438 122.348 567.985 123.895C569.532 125.442 571.625 126.31 573.815 126.31C576.005 126.31 578.098 125.442 579.645 123.895C581.192 122.348 582.06 120.255 582.06 118.065Z" fill="#FAA184"/>
<path d="M197.556 559.905C197.556 557.715 196.688 555.622 195.141 554.075C193.594 552.528 191.501 551.66 189.311 551.66C187.121 551.66 185.028 552.528 183.481 554.075C181.934 555.622 181.066 557.715 181.066 559.905C181.066 562.095 181.934 564.188 183.481 565.735C185.028 567.282 187.121 568.149 189.311 568.149C191.501 568.149 193.594 567.282 195.141 565.735C196.688 564.188 197.556 562.095 197.556 559.905Z" fill="#FAA184"/>
<path d="M266.032 378.796C266.032 376.607 265.164 374.513 263.618 372.966C262.071 371.42 259.977 370.552 257.788 370.552C255.598 370.552 253.505 371.42 251.958 372.966C250.411 374.513 249.543 376.607 249.543 378.796C249.543 380.986 250.411 383.079 251.958 384.626C253.505 386.173 255.598 387.041 257.788 387.041C259.977 387.041 262.071 386.173 263.618 384.626C265.164 383.079 266.032 380.986 266.032 378.796Z" fill="#FAA184"/>
<path d="M360.427 728.037C360.427 725.847 359.559 723.754 358.012 722.207C356.465 720.66 354.372 719.792 352.182 719.792C349.992 719.792 347.899 720.66 346.352 722.207C344.805 723.754 343.938 725.847 343.938 728.037C343.938 730.226 344.805 732.32 346.352 733.867C347.899 735.413 349.992 736.281 352.182 736.281C354.372 736.281 356.465 735.413 358.012 733.867C359.559 732.32 360.427 730.226 360.427 728.037Z" fill="#FAA184"/>
<path d="M88.8487 159.361C88.8487 157.171 87.9808 155.078 86.4339 153.531C84.8871 151.984 82.7938 151.116 80.604 151.116C78.4143 151.116 76.321 151.984 74.7741 153.531C73.2272 155.078 72.3594 157.171 72.3594 159.361C72.3594 161.551 73.2272 163.644 74.7741 165.191C76.321 166.738 78.4143 167.606 80.604 167.606C82.7938 167.606 84.8871 166.738 86.4339 165.191C87.9808 163.644 88.8487 161.551 88.8487 159.361Z" fill="#FAA184"/>
<path d="M477.817 379.375C477.817 377.185 476.95 375.091 475.403 373.545C473.856 371.998 471.763 371.13 469.573 371.13C467.383 371.13 465.29 371.998 463.743 373.545C462.196 375.091 461.328 377.185 461.328 379.375C461.328 381.564 462.196 383.658 463.743 385.204C465.29 386.751 467.383 387.619 469.573 387.619C471.763 387.619 473.856 386.751 475.403 385.204C476.95 383.658 477.817 381.564 477.817 379.375Z" fill="#FAA184"/>
<path d="M277.692 585.523C277.692 583.333 276.825 581.24 275.278 579.693C273.731 578.146 271.638 577.278 269.448 577.278C267.258 577.278 265.165 578.146 263.618 579.693C262.071 581.24 261.203 583.333 261.203 585.523C261.203 587.713 262.071 589.806 263.618 591.353C265.165 592.9 267.258 593.768 269.448 593.768C271.638 593.768 273.731 592.9 275.278 591.353C276.825 589.806 277.692 587.713 277.692 585.523Z" fill="#FAA184"/>
<path d="M334.759 439.703C334.759 437.513 333.891 435.42 332.344 433.873C330.797 432.326 328.704 431.458 326.514 431.458C324.324 431.458 322.231 432.326 320.684 433.873C319.137 435.42 318.27 437.513 318.27 439.703C318.27 441.892 319.137 443.986 320.684 445.533C322.231 447.079 324.324 447.947 326.514 447.947C328.704 447.947 330.797 447.079 332.344 445.533C333.891 443.986 334.759 441.892 334.759 439.703Z" fill="#FAA184"/>
<path d="M649.696 645.956C649.696 643.766 648.828 641.673 647.282 640.126C645.735 638.579 643.641 637.711 641.452 637.711C639.262 637.711 637.169 638.579 635.622 640.126C634.075 641.673 633.207 643.766 633.207 645.956C633.207 648.145 634.075 650.239 635.622 651.786C637.169 653.332 639.262 654.2 641.452 654.2C643.641 654.2 645.735 653.332 647.282 651.786C648.828 650.239 649.696 648.145 649.696 645.956Z" fill="#FAA184"/>
<path d="M630.368 445.569C630.368 443.379 629.5 441.286 627.953 439.739C626.407 438.192 624.313 437.324 622.124 437.324C619.934 437.324 617.841 438.192 616.294 439.739C614.747 441.286 613.879 443.379 613.879 445.569C613.879 447.759 614.747 449.852 616.294 451.399C617.841 452.946 619.934 453.814 622.124 453.814C624.313 453.814 626.407 452.946 627.953 451.399C629.5 449.852 630.368 447.759 630.368 445.569Z" fill="#FAA184"/>
<path d="M264.767 231.357C264.767 229.167 263.899 227.074 262.352 225.527C260.805 223.98 258.712 223.112 256.522 223.112C254.332 223.112 252.239 223.98 250.692 225.527C249.145 227.074 248.277 229.167 248.277 231.357C248.277 233.547 249.145 235.64 250.692 237.187C252.239 238.734 254.332 239.602 256.522 239.602C258.712 239.602 260.805 238.734 262.352 237.187C263.899 235.64 264.767 233.547 264.767 231.357Z" fill="#FAA184"/>
<path d="M251.329 653.143C251.329 650.953 250.461 648.86 248.914 647.313C247.368 645.766 245.274 644.898 243.084 644.898C240.895 644.898 238.801 645.766 237.255 647.313C235.708 648.86 234.84 650.953 234.84 653.143C234.84 655.333 235.708 657.426 237.255 658.973C238.801 660.52 240.895 661.388 243.084 661.388C245.274 661.388 247.368 660.52 248.914 658.973C250.461 657.426 251.329 655.333 251.329 653.143Z" fill="#FAA184"/>
<path d="M359.044 462.665C359.044 460.475 358.176 458.382 356.629 456.835C355.082 455.288 352.989 454.42 350.799 454.42C348.61 454.42 346.516 455.288 344.969 456.835C343.423 458.382 342.555 460.475 342.555 462.665C342.555 464.854 343.423 466.948 344.969 468.494C346.516 470.041 348.61 470.909 350.799 470.909C352.989 470.909 355.082 470.041 356.629 468.494C358.176 466.948 359.044 464.854 359.044 462.665Z" fill="#FAA184"/>
<path d="M395.079 709.602C395.079 707.412 394.211 705.319 392.664 703.772C391.118 702.225 389.024 701.357 386.834 701.357C384.645 701.357 382.551 702.225 381.005 703.772C379.458 705.319 378.59 707.412 378.59 709.602C378.59 711.792 379.458 713.885 381.005 715.432C382.551 716.979 384.645 717.847 386.834 717.847C389.024 717.847 391.118 716.979 392.664 715.432C394.211 713.885 395.079 711.792 395.079 709.602Z" fill="#FAA184"/>
<path d="M333.204 308.226C333.204 306.036 332.336 303.943 330.789 302.396C329.243 300.849 327.149 299.981 324.959 299.981C322.77 299.981 320.676 300.849 319.13 302.396C317.583 303.943 316.715 306.036 316.715 308.226C316.715 310.416 317.583 312.509 319.13 314.056C320.676 315.603 322.77 316.471 324.959 316.471C327.149 316.471 329.243 315.603 330.789 314.056C332.336 312.509 333.204 310.416 333.204 308.226Z" fill="#FAA184"/>
<path d="M282.021 413.02C282.021 410.83 281.153 408.737 279.606 407.19C278.059 405.643 275.966 404.775 273.776 404.775C271.586 404.775 269.493 405.643 267.946 407.19C266.399 408.737 265.531 410.83 265.531 413.02C265.531 415.21 266.399 417.303 267.946 418.85C269.493 420.397 271.586 421.265 273.776 421.265C275.966 421.265 278.059 420.397 279.606 418.85C281.153 417.303 282.021 415.21 282.021 413.02Z" fill="#FAA184"/>
<path d="M195.868 190.367C195.868 188.177 195 186.084 193.453 184.537C191.907 182.99 189.813 182.122 187.624 182.122C185.434 182.122 183.341 182.99 181.794 184.537C180.247 186.084 179.379 188.177 179.379 190.367C179.379 192.556 180.247 194.65 181.794 196.197C183.341 197.744 185.434 198.611 187.624 198.611C189.813 198.611 191.907 197.744 193.453 196.197C195 194.65 195.868 192.556 195.868 190.367Z" fill="#FAA184"/>
<path d="M342.099 143.611C342.099 141.421 341.231 139.328 339.684 137.781C338.137 136.234 336.044 135.366 333.854 135.366C331.664 135.366 329.571 136.234 328.024 137.781C326.477 139.328 325.609 141.421 325.609 143.611C325.609 145.801 326.477 147.894 328.024 149.441C329.571 150.988 331.664 151.856 333.854 151.856C336.044 151.856 338.137 150.988 339.684 149.441C341.231 147.894 342.099 145.801 342.099 143.611Z" fill="#FAA184"/>
<path d="M48.8252 399.874C48.8252 397.684 47.9574 395.591 46.4105 394.044C44.8636 392.497 42.7703 391.629 40.5806 391.629C38.3909 391.629 36.2975 392.497 34.7507 394.044C33.2038 395.591 32.3359 397.684 32.3359 399.874C32.3359 402.063 33.2038 404.157 34.7507 405.703C36.2975 407.25 38.3909 408.118 40.5806 408.118C42.7703 408.118 44.8636 407.25 46.4105 405.703C47.9574 404.157 48.8252 402.063 48.8252 399.874Z" fill="#FAA184"/>
<path d="M466.056 583.988C466.056 581.798 465.188 579.705 463.641 578.158C462.094 576.611 460.001 575.743 457.811 575.743C455.621 575.743 453.528 576.611 451.981 578.158C450.434 579.705 449.566 581.798 449.566 583.988C449.566 586.178 450.434 588.271 451.981 589.818C453.528 591.365 455.621 592.232 457.811 592.232C460.001 592.232 462.094 591.365 463.641 589.818C465.188 588.271 466.056 586.178 466.056 583.988Z" fill="#FAA184"/>
<path d="M686.411 354.219C686.411 352.03 685.543 349.936 683.996 348.389C682.45 346.842 680.356 345.975 678.167 345.975C675.977 345.975 673.883 346.842 672.337 348.389C670.79 349.936 669.922 352.03 669.922 354.219C669.922 356.409 670.79 358.502 672.337 360.049C673.883 361.596 675.977 362.464 678.167 362.464C680.356 362.464 682.45 361.596 683.996 360.049C685.543 358.502 686.411 356.409 686.411 354.219Z" fill="#FAA184"/>
<path d="M520.896 241.429C520.896 239.239 520.028 237.146 518.481 235.599C516.934 234.052 514.841 233.185 512.651 233.185C510.461 233.185 508.368 234.052 506.821 235.599C505.274 237.146 504.406 239.239 504.406 241.429C504.406 243.619 505.274 245.712 506.821 247.259C508.368 248.806 510.461 249.674 512.651 249.674C514.841 249.674 516.934 248.806 518.481 247.259C520.028 245.712 520.896 243.619 520.896 241.429Z" fill="#FAA184"/>
<path d="M98.0284 236.419C98.0284 234.23 97.1605 232.136 95.6136 230.59C94.0667 229.043 91.9734 228.175 89.7837 228.175C87.594 228.175 85.5007 229.043 83.9538 230.59C82.4069 232.136 81.5391 234.23 81.5391 236.419C81.5391 238.609 82.4069 240.702 83.9538 242.249C85.5007 243.796 87.594 244.664 89.7837 244.664C91.9734 244.664 94.0667 243.796 95.6136 242.249C97.1605 240.702 98.0284 238.609 98.0284 236.419Z" fill="#FAA184"/>
<path d="M318.255 686.849C318.255 684.659 317.387 682.566 315.84 681.019C314.293 679.472 312.2 678.604 310.01 678.604C307.821 678.604 305.727 679.472 304.18 681.019C302.633 682.566 301.766 684.659 301.766 686.849C301.766 689.039 302.633 691.132 304.18 692.679C305.727 694.226 307.821 695.094 310.01 695.094C312.2 695.094 314.293 694.226 315.84 692.679C317.387 691.132 318.255 689.039 318.255 686.849Z" fill="#FAA184"/>
<path d="M723.825 479.68C723.825 477.49 722.957 475.397 721.411 473.85C719.864 472.303 717.77 471.436 715.581 471.436C713.391 471.436 711.298 472.303 709.751 473.85C708.204 475.397 707.336 477.49 707.336 479.68C707.336 481.87 708.204 483.963 709.751 485.51C711.298 487.057 713.391 487.925 715.581 487.925C717.77 487.925 719.864 487.057 721.411 485.51C722.957 483.963 723.825 481.87 723.825 479.68Z" fill="#FAA184"/>
<path d="M225.099 61.3169C225.099 59.1272 224.231 57.0339 222.684 55.487C221.137 53.9401 219.044 53.0723 216.854 53.0723C214.664 53.0723 212.571 53.9401 211.024 55.487C209.477 57.0339 208.609 59.1272 208.609 61.3169C208.609 63.5066 209.477 65.6 211.024 67.1468C212.571 68.6937 214.664 69.5616 216.854 69.5616C219.044 69.5616 221.137 68.6937 222.684 67.1468C224.231 65.6 225.099 63.5066 225.099 61.3169Z" fill="#FAA184"/>
<path d="M145.685 630.403C145.685 628.213 144.817 626.12 143.27 624.573C141.723 623.026 139.63 622.158 137.44 622.158C135.25 622.158 133.157 623.026 131.61 624.573C130.063 626.12 129.195 628.213 129.195 630.403C129.195 632.593 130.063 634.686 131.61 636.233C133.157 637.78 135.25 638.648 137.44 638.648C139.63 638.648 141.723 637.78 143.27 636.233C144.817 634.686 145.685 632.593 145.685 630.403Z" fill="#FAA184"/>
<path d="M241.149 200.632C241.149 198.443 240.282 196.349 238.735 194.802C237.188 193.256 235.095 192.388 232.905 192.388C230.715 192.388 228.622 193.256 227.075 194.802C225.528 196.349 224.66 198.443 224.66 200.632C224.66 202.822 225.528 204.915 227.075 206.462C228.622 208.009 230.715 208.877 232.905 208.877C235.095 208.877 237.188 208.009 238.735 206.462C240.282 204.915 241.149 202.822 241.149 200.632Z" fill="#FAA184"/>
<path d="M252.696 163.407C252.696 161.217 251.828 159.124 250.282 157.577C248.735 156.03 246.641 155.162 244.452 155.162C242.262 155.162 240.169 156.03 238.622 157.577C237.075 159.124 236.207 161.217 236.207 163.407C236.207 165.596 237.075 167.69 238.622 169.237C240.169 170.784 242.262 171.651 244.452 171.651C246.641 171.651 248.735 170.784 250.282 169.237C251.828 167.69 252.696 165.596 252.696 163.407Z" fill="#FAA184"/>
<path d="M448.189 160.064C448.189 157.874 447.321 155.781 445.774 154.234C444.227 152.687 442.134 151.819 439.944 151.819C437.754 151.819 435.661 152.687 434.114 154.234C432.567 155.781 431.699 157.874 431.699 160.064C431.699 162.254 432.567 164.347 434.114 165.894C435.661 167.441 437.754 168.309 439.944 168.309C442.134 168.309 444.227 167.441 445.774 165.894C447.321 164.347 448.189 162.254 448.189 160.064Z" fill="#FAA184"/>
<path d="M370.196 482.855C370.196 480.665 369.328 478.572 367.782 477.025C366.235 475.478 364.141 474.61 361.952 474.61C359.762 474.61 357.669 475.478 356.122 477.025C354.575 478.572 353.707 480.665 353.707 482.855C353.707 485.045 354.575 487.138 356.122 488.685C357.669 490.232 359.762 491.1 361.952 491.1C364.141 491.1 366.235 490.232 367.782 488.685C369.328 487.138 370.196 485.045 370.196 482.855Z" fill="#FAA184"/>
<path d="M388.583 157.753C388.583 155.564 387.715 153.47 386.168 151.924C384.621 150.377 382.528 149.509 380.338 149.509C378.149 149.509 376.055 150.377 374.508 151.924C372.962 153.47 372.094 155.564 372.094 157.753C372.094 159.943 372.962 162.036 374.508 163.583C376.055 165.13 378.149 165.998 380.338 165.998C382.528 165.998 384.621 165.13 386.168 163.583C387.715 162.036 388.583 159.943 388.583 157.753Z" fill="#FAA184"/>
<path d="M619.247 384.08C619.247 381.89 618.379 379.797 616.832 378.25C615.286 376.703 613.192 375.835 611.002 375.835C608.813 375.835 606.719 376.703 605.173 378.25C603.626 379.797 602.758 381.89 602.758 384.08C602.758 386.269 603.626 388.363 605.173 389.91C606.719 391.456 608.813 392.324 611.002 392.324C613.192 392.324 615.286 391.456 616.832 389.91C618.379 388.363 619.247 386.269 619.247 384.08Z" fill="#FAA184"/>
</g>
<defs>
<clipPath id="clip0_500_2190">
<rect width="738.796" height="800" fill="white"/>
</clipPath>
</defs>
</svg>
