<svg width="800" height="800" viewBox="0 0 800 800" fill="none" xmlns="http://www.w3.org/2000/svg">
<path d="M785 400C785 335.968 769.027 272.955 738.536 216.651C708.045 160.347 663.985 112.539 610.363 77.5518" stroke="#FAA184" stroke-width="8" stroke-linejoin="round"/>
<path d="M26.5035 306.597C22.7753 321.503 19.9638 336.497 18.0352 351.743" stroke="#FAA184" stroke-width="16" stroke-linejoin="round"/>
<path d="M276.436 35.3662C220.445 54.3402 169.567 85.9589 127.762 127.764" stroke="#FAA184" stroke-width="18" stroke-linejoin="round"/>
<path d="M210.301 735.02C228.555 745.355 247.624 754.184 267.311 761.409" stroke="#FAA184" stroke-width="24" stroke-linejoin="round"/>
<path d="M416.93 15.3732C376.571 13.594 336.179 18.1847 297.246 28.9687" stroke="#FAA184" stroke-width="8" stroke-linejoin="round"/>
<path d="M276.441 764.634C355.013 791.261 440.077 791.791 518.974 766.155C597.871 740.519 666.379 690.083 714.296 622.363" stroke="#FAA184" stroke-width="8" stroke-linejoin="round"/>
<path d="M500.428 28.3304C477.841 22.2253 454.738 18.1983 431.418 16.2832" stroke="#FAA184" stroke-width="8" stroke-linejoin="round"/>
<path d="M17.1945 358.956C9.49356 430.777 22.1519 503.318 53.7299 568.288C85.3079 633.257 134.522 688.033 195.756 726.354" stroke="#FAA184" stroke-width="4" stroke-linejoin="round"/>
<path d="M576.939 58.0682C559.024 48.7985 540.41 40.955 521.273 34.5986" stroke="#FAA184" stroke-width="8" stroke-linejoin="round"/>
<path d="M109.613 147.213C75.0804 186.886 49.0439 233.207 33.1055 283.331" stroke="#FAA184" stroke-width="2" stroke-linejoin="round"/>
<path d="M728.895 600.13C765.165 540.526 784.553 472.188 784.988 402.418" stroke="#FAA184" stroke-width="2" stroke-linejoin="round"/>
<path d="M33.1059 283.331C31.1501 289.484 29.3504 295.67 27.707 301.911" stroke="#FAA184" stroke-width="8" stroke-linejoin="round"/>
<path d="M728.892 600.129C728.892 600.129 231.366 604.91 31.1953 289.497" stroke="#FAA184" stroke-linecap="round" stroke-linejoin="round"/>
<path d="M778.327 471.346C778.327 471.346 229.562 611.104 29.3984 295.69" stroke="#FAA184" stroke-linecap="round" stroke-linejoin="round"/>
<path d="M784.991 402.417C784.991 402.417 227.874 617.331 27.7031 301.911" stroke="#FAA184" stroke-linecap="round" stroke-linejoin="round"/>
<path d="M759.423 537.972C759.423 537.972 233.272 598.744 33.1016 283.331" stroke="#FAA184" stroke-linecap="round" stroke-linejoin="round"/>
<path d="M558.802 49.2734C526.382 478.449 110.15 140.15 109.613 147.213" stroke="#FAA184" stroke-linecap="round" stroke-linejoin="round"/>
<path d="M576.939 58.0684C544.519 487.244 93.6263 160.49 93.0898 167.552" stroke="#FAA184" stroke-linecap="round" stroke-linejoin="round"/>
<path d="M567.927 53.5527C535.506 482.728 78.5287 181.902 77.9922 188.965" stroke="#FAA184" stroke-linecap="round" stroke-linejoin="round"/>
<path d="M540.226 41.4434C507.806 470.619 64.9193 204.284 64.3828 211.353" stroke="#FAA184" stroke-linecap="round" stroke-linejoin="round"/>
<path d="M530.796 37.8984C498.376 467.074 52.8685 227.55 52.332 234.619" stroke="#FAA184" stroke-linecap="round" stroke-linejoin="round"/>
<path d="M549.566 45.2402C517.146 474.416 42.4232 251.584 41.8867 258.646" stroke="#FAA184" stroke-linecap="round" stroke-linejoin="round"/>
<path d="M521.267 34.5986C488.847 463.774 33.6352 276.269 33.1055 283.331" stroke="#FAA184" stroke-linecap="round" stroke-linejoin="round"/>
<path d="M500.424 28.3301C529.069 534.393 16.2148 430.607 16.2148 430.607" stroke="#FAA184" stroke-linecap="round" stroke-linejoin="round"/>
<path d="M477.673 22.918C506.324 528.988 28.5391 501.199 28.5391 501.199" stroke="#FAA184" stroke-linecap="round" stroke-linejoin="round"/>
<path d="M454.649 18.8975C483.293 524.967 53.7305 568.287 53.7305 568.287" stroke="#FAA184" stroke-linecap="round" stroke-linejoin="round"/>
<path d="M466.19 20.7314C494.841 526.801 90.9141 629.548 90.9141 629.548" stroke="#FAA184" stroke-linecap="round" stroke-linejoin="round"/>
<path d="M443.047 17.417C471.698 523.487 138.805 682.85 138.805 682.85" stroke="#FAA184" stroke-linecap="round" stroke-linejoin="round"/>
<path d="M431.414 16.2832C460.065 522.353 195.754 726.353 195.754 726.353" stroke="#FAA184" stroke-linecap="round" stroke-linejoin="round"/>
<path d="M489.089 25.4512C517.74 531.514 17.1914 358.956 17.1914 358.956" stroke="#FAA184" stroke-linecap="round" stroke-linejoin="round"/>
<path d="M416.929 15.374C321.462 533.511 357.379 551.256 316.016 775.731" stroke="#FAA184" stroke-linecap="round" stroke-linejoin="round"/>
<path d="M411.89 15.1836C316.423 533.321 397.908 558.067 356.551 782.542" stroke="#FAA184" stroke-linecap="round" stroke-linejoin="round"/>
<path d="M406.852 15.0615C311.385 533.199 337.435 546.237 296.078 770.706" stroke="#FAA184" stroke-linecap="round" stroke-linejoin="round"/>
<path d="M401.81 15.0068C306.343 533.144 500.388 555.975 459.031 780.451" stroke="#FAA184" stroke-linecap="round" stroke-linejoin="round"/>
<path d="M297.239 28.9697C201.771 547.107 755.649 397.896 714.285 622.371" stroke="#FAA184" stroke-linecap="round" stroke-linejoin="round"/>
<path d="M302.107 27.6514C206.64 545.789 743.33 414.349 701.973 638.825" stroke="#FAA184" stroke-linecap="round" stroke-linejoin="round"/>
<path d="M306.991 26.4023C211.523 544.54 669.608 485.567 628.251 710.042" stroke="#FAA184" stroke-linecap="round" stroke-linejoin="round"/>
<path d="M311.887 25.2207C216.42 543.358 635.253 508.14 593.896 732.615" stroke="#FAA184" stroke-linecap="round" stroke-linejoin="round"/>
<path d="M316.805 24.1006C221.337 542.238 716.154 445.188 674.79 669.663" stroke="#FAA184" stroke-linecap="round" stroke-linejoin="round"/>
<path d="M321.729 23.04C226.262 541.177 730.151 430.131 688.794 654.607" stroke="#FAA184" stroke-linecap="round" stroke-linejoin="round"/>
<path d="M326.673 22.0488C231.206 540.186 701.365 459.469 660.008 683.944" stroke="#FAA184" stroke-linecap="round" stroke-linejoin="round"/>
<path d="M331.621 21.1191C236.153 539.256 685.831 472.943 644.474 697.418" stroke="#FAA184" stroke-linecap="round" stroke-linejoin="round"/>
<path d="M336.583 20.2559C241.116 538.393 579.7 534.807 538.343 759.283" stroke="#FAA184" stroke-linecap="round" stroke-linejoin="round"/>
<path d="M341.563 19.4619C246.095 537.599 520.613 552.281 479.256 776.757" stroke="#FAA184" stroke-linecap="round" stroke-linejoin="round"/>
<path d="M346.546 18.7285C251.079 536.866 652.731 497.315 611.367 721.784" stroke="#FAA184" stroke-linecap="round" stroke-linejoin="round"/>
<path d="M351.548 18.0625C256.08 536.2 617.224 518.013 575.867 742.489" stroke="#FAA184" stroke-linecap="round" stroke-linejoin="round"/>
<path d="M356.551 17.458C261.083 535.595 598.69 526.91 557.333 751.385" stroke="#FAA184" stroke-linecap="round" stroke-linejoin="round"/>
<path d="M361.561 16.9219C266.093 535.059 438.944 560.518 397.58 784.987" stroke="#FAA184" stroke-linecap="round" stroke-linejoin="round"/>
<path d="M366.578 16.4531C271.111 534.59 377.553 555.201 336.189 779.676" stroke="#FAA184" stroke-linecap="round" stroke-linejoin="round"/>
<path d="M371.6 16.0459C276.132 534.183 459.495 560.097 418.131 784.566" stroke="#FAA184" stroke-linecap="round" stroke-linejoin="round"/>
<path d="M376.632 15.7129C281.165 533.85 560.335 541.687 518.971 766.162" stroke="#FAA184" stroke-linecap="round" stroke-linejoin="round"/>
<path d="M381.664 15.4346C286.196 533.572 540.62 547.514 499.256 771.982" stroke="#FAA184" stroke-linecap="round" stroke-linejoin="round"/>
<path d="M386.696 15.2314C291.228 533.369 317.794 540.16 276.438 764.635" stroke="#FAA184" stroke-linecap="round" stroke-linejoin="round"/>
<path d="M391.733 15.0879C296.266 533.225 479.995 558.583 438.638 783.058" stroke="#FAA184" stroke-linecap="round" stroke-linejoin="round"/>
<path d="M396.773 15.0137C301.305 533.151 418.389 559.839 377.032 784.315" stroke="#FAA184" stroke-linecap="round" stroke-linejoin="round"/>
<path d="M251.037 44.9893C251.037 44.9893 356.935 407.525 210.305 735.019" stroke="#FAA184" stroke-linecap="round" stroke-linejoin="round"/>
<path d="M263.653 39.9502C263.653 39.9502 361.158 409.875 214.527 737.376" stroke="#FAA184" stroke-linecap="round" stroke-linejoin="round"/>
<path d="M226.376 56.3711C226.376 56.3711 365.415 412.184 218.777 739.678" stroke="#FAA184" stroke-linecap="round" stroke-linejoin="round"/>
<path d="M276.44 35.3662C276.44 35.3662 369.7 414.431 223.062 741.932" stroke="#FAA184" stroke-linecap="round" stroke-linejoin="round"/>
<path d="M214.367 62.7129C214.367 62.7129 374.009 416.631 227.379 744.132" stroke="#FAA184" stroke-linecap="round" stroke-linejoin="round"/>
<path d="M238.608 50.4629C238.608 50.4629 378.345 418.771 231.715 746.272" stroke="#FAA184" stroke-linecap="round" stroke-linejoin="round"/>
<path d="M179.77 84.2139C179.77 84.2139 382.711 420.863 236.08 748.357" stroke="#FAA184" stroke-linecap="round" stroke-linejoin="round"/>
<path d="M191.043 76.6416C191.043 76.6416 387.098 422.893 240.468 750.394" stroke="#FAA184" stroke-linecap="round" stroke-linejoin="round"/>
<path d="M168.762 92.1797C168.762 92.1797 391.512 424.876 244.882 752.37" stroke="#FAA184" stroke-linecap="round" stroke-linejoin="round"/>
<path d="M202.582 69.4707C202.582 69.4707 395.955 426.791 249.324 754.292" stroke="#FAA184" stroke-linecap="round" stroke-linejoin="round"/>
<path d="M147.637 109.245C147.637 109.245 400.417 428.658 253.786 756.153" stroke="#FAA184" stroke-linecap="round" stroke-linejoin="round"/>
<path d="M137.539 118.331C137.539 118.331 404.906 430.464 258.276 757.966" stroke="#FAA184" stroke-linecap="round" stroke-linejoin="round"/>
<path d="M158.051 100.525C158.051 100.525 409.418 432.217 262.781 759.718" stroke="#FAA184" stroke-linecap="round" stroke-linejoin="round"/>
<path d="M127.766 127.764C127.766 127.764 413.951 433.914 267.313 761.408" stroke="#FAA184" stroke-linecap="round" stroke-linejoin="round"/>
<path d="M785.001 400.001C785.001 400.001 464.203 495.217 24.5625 314.727" stroke="#FAA184" stroke-linecap="round" stroke-linejoin="round"/>
<path d="M783.432 365.299C783.432 365.299 466.144 487.088 26.5039 306.598" stroke="#FAA184" stroke-linecap="round" stroke-linejoin="round"/>
<path d="M778.745 330.882C778.745 330.882 465.152 491.142 25.5117 310.658" stroke="#FAA184" stroke-linecap="round" stroke-linejoin="round"/>
<path d="M770.975 297.029C770.975 297.029 462.441 503.386 22.8008 322.896" stroke="#FAA184" stroke-linecap="round" stroke-linejoin="round"/>
<path d="M760.187 264.019C760.187 264.019 461.629 507.481 21.9883 326.998" stroke="#FAA184" stroke-linecap="round" stroke-linejoin="round"/>
<path d="M746.46 232.107C746.46 232.107 463.297 499.298 23.6562 318.808" stroke="#FAA184" stroke-linecap="round" stroke-linejoin="round"/>
<path d="M729.92 201.562C729.92 201.562 459.449 519.827 19.8086 339.337" stroke="#FAA184" stroke-linecap="round" stroke-linejoin="round"/>
<path d="M710.691 172.639C710.691 172.639 460.132 515.705 20.4844 335.214" stroke="#FAA184" stroke-linecap="round" stroke-linejoin="round"/>
<path d="M688.935 145.563C688.935 145.563 458.816 523.956 19.1758 343.466" stroke="#FAA184" stroke-linecap="round" stroke-linejoin="round"/>
<path d="M664.825 120.553C664.825 120.553 460.858 511.59 21.2109 331.1" stroke="#FAA184" stroke-linecap="round" stroke-linejoin="round"/>
<path d="M638.567 97.8223C638.567 97.8223 457.676 532.234 18.0352 351.743" stroke="#FAA184" stroke-linecap="round" stroke-linejoin="round"/>
<path d="M610.363 77.5518C610.363 77.5518 458.225 528.092 18.5781 347.601" stroke="#FAA184" stroke-linecap="round" stroke-linejoin="round"/>
</svg>
